<svg width="18" height="18" viewBox="0 0 18 18" fill="none" xmlns="http://www.w3.org/2000/svg">
<path d="M12.9719 9.59521L7.34692 15.2202C7.18841 15.3787 6.97343 15.4678 6.74927 15.4678C6.5251 15.4678 6.31012 15.3787 6.15161 15.2202C5.9931 15.0617 5.90405 14.8467 5.90405 14.6226C5.90405 14.3984 5.9931 14.1834 6.15161 14.0249L11.1797 8.99826L6.15302 3.97021C6.07453 3.89173 6.01227 3.79855 5.9698 3.69601C5.92732 3.59346 5.90546 3.48355 5.90546 3.37256C5.90546 3.26156 5.92732 3.15165 5.9698 3.04911C6.01227 2.94656 6.07453 2.85339 6.15302 2.7749C6.2315 2.69642 6.32468 2.63416 6.42722 2.59168C6.52977 2.54921 6.63968 2.52734 6.75067 2.52734C6.86167 2.52734 6.97158 2.54921 7.07412 2.59168C7.17667 2.63416 7.26984 2.69642 7.34833 2.7749L12.9733 8.3999C13.0519 8.47838 13.1142 8.5716 13.1567 8.67421C13.1991 8.77682 13.2209 8.8868 13.2208 8.99785C13.2207 9.1089 13.1986 9.21883 13.1559 9.32134C13.1132 9.42385 13.0507 9.51692 12.9719 9.59521Z" fill="#BF165E"/>
</svg>
