<svg width="144" height="80" viewBox="0 0 144 80" fill="none" xmlns="http://www.w3.org/2000/svg">
<path d="M138.434 2.29074C137.966 0.651677 136.294 -0.303542 134.551 0.0872296L61.971 18.6814C60.2991 19.1102 58.0772 20.5702 57.0377 21.927L43.0959 40.0816C42.051 41.4384 42.579 42.8441 44.2674 43.2077L123.161 60.0435C124.849 60.4017 126.582 59.3488 127.011 57.6988L139.198 10.7357C139.627 9.08582 139.594 6.39384 139.132 4.74935L138.434 2.29074Z" fill="white"/>
<path d="M143.422 4.72807C142.943 3.13242 142.212 1.85699 140.447 1.29797C139.028 0.847498 137.658 0.467582 136.157 0.109375C137.235 0.380744 138.115 1.17857 138.428 2.29661L139.127 4.76064C139.594 6.39971 139.622 9.09711 139.193 10.747L127.005 57.7101C126.989 57.7807 126.961 57.8512 126.939 57.9164L143.284 13.4716C143.636 12.3264 143.999 11.6968 143.999 9.71583C144.01 7.68057 143.422 4.72807 143.422 4.72807Z" fill="#9F0D43"/>
<path d="M139.132 4.75477L138.434 2.29074C137.966 0.651677 136.294 -0.303542 134.551 0.0872296L61.971 18.6814C60.2991 19.1102 58.0772 20.5702 57.0377 21.927L43.0959 40.0816C42.051 41.4384 42.579 42.8441 44.2674 43.2077L60.0241 46.5727C59.4301 46.1819 58.8801 45.7369 58.3962 45.2322C57.4447 44.2389 56.7352 43.0503 56.2678 41.6718C55.8003 40.2878 55.6408 38.7681 55.7838 37.1019C55.9323 35.3977 56.3723 33.8564 57.0982 32.4724C57.8242 31.0884 58.7591 29.9107 59.9031 28.9392C61.047 27.9677 62.3614 27.2187 63.8299 26.6977C65.3038 26.1766 66.8657 25.9161 68.5156 25.9161C70.0446 25.9161 71.524 26.1821 72.9539 26.7139C74.3838 27.2458 75.5113 28.0219 76.3417 29.0423L72.4864 32.5267C72.0575 31.8645 71.458 31.3761 70.688 31.0558C69.9236 30.7356 69.1206 30.5728 68.2847 30.5728C67.3662 30.5728 66.5137 30.7356 65.7163 31.0667C64.9243 31.3978 64.2259 31.8537 63.6209 32.4344C63.0159 33.0151 62.5319 33.699 62.1525 34.4914C61.7785 35.2838 61.5475 36.1522 61.465 37.0911C61.3825 38.0517 61.454 38.9364 61.6905 39.7342C61.927 40.5375 62.2845 41.2213 62.7739 41.7966C63.2634 42.3665 63.8739 42.8115 64.5998 43.1318C65.3258 43.452 66.1343 43.6148 67.0362 43.6148C68.0757 43.6148 68.9996 43.414 69.8136 43.0124C70.622 42.6107 71.293 42.0897 71.8155 41.4493L75.1538 44.8142C74.0979 45.8943 72.8439 46.7518 71.381 47.3868C70.3305 47.8427 69.1811 48.1249 67.9382 48.2552L94.3863 53.8997L95.1398 50.5021C95.3763 50.5836 95.6403 50.6487 95.9317 50.6975C96.2232 50.7464 96.4927 50.7735 96.7347 50.7735C97.5102 50.7735 98.0876 50.5998 98.4616 50.2471C98.8356 49.8943 99.1766 49.4004 99.4791 48.7599L100.079 47.5279L95.0243 32.798H100.59L103.131 42.4153H103.224L107.102 32.798H112.42L104.071 50.0245C103.697 50.8061 103.296 51.5008 102.861 52.1141C102.432 52.7274 101.937 53.2484 101.376 53.6772C100.815 54.1059 100.178 54.4316 99.4571 54.6541C99.2206 54.7246 98.9676 54.7789 98.7036 54.8278L123.155 60.0435C124.844 60.4017 126.576 59.3488 127.005 57.6988L139.193 10.7357C139.627 9.09125 139.6 6.39384 139.132 4.75477ZM81.143 47.7722H76.1272L77.4527 32.8035H82.4684L81.143 47.7722ZM83.2604 28.0274C83.2274 28.4073 83.1174 28.7655 82.9359 29.0966C82.7544 29.4276 82.5234 29.7153 82.2484 29.9541C81.9735 30.1929 81.649 30.3828 81.2805 30.524C80.912 30.6651 80.5325 30.7356 80.1475 30.7356C79.3336 30.7356 78.6736 30.4697 78.1676 29.9378C77.6672 29.4059 77.4472 28.7709 77.5132 28.0274C77.5462 27.6692 77.6452 27.3218 77.8212 26.9907C77.9917 26.6597 78.2226 26.372 78.5086 26.1332C78.7946 25.8944 79.1191 25.699 79.4766 25.5471C79.8341 25.3951 80.219 25.3191 80.626 25.3191C81.011 25.3191 81.3795 25.3897 81.7205 25.5308C82.0669 25.6719 82.3529 25.8618 82.5894 26.1006C82.8204 26.3395 83.0019 26.6271 83.1229 26.9582C83.2494 27.2892 83.2934 27.642 83.2604 28.0274ZM94.3038 36.4724H90.7235L90.2175 42.2037C90.157 42.9092 90.245 43.4357 90.4925 43.7885C90.7345 44.1413 91.213 44.3149 91.9279 44.3149C92.1699 44.3149 92.4339 44.2932 92.7144 44.2552C92.9949 44.2172 93.2259 44.1575 93.4184 44.0761L93.1599 47.6799C92.8024 47.7993 92.3569 47.9079 91.818 47.9947C91.279 48.087 90.7455 48.1304 90.2175 48.1304C89.2001 48.1304 88.3531 48.0055 87.6822 47.7559C87.0112 47.5062 86.4887 47.1426 86.1092 46.6704C85.7353 46.1982 85.4823 45.6338 85.3558 44.9825C85.2293 44.3312 85.2018 43.6039 85.2733 42.7953L85.8343 36.4669H83.3869L83.7114 32.798H86.1257L86.4722 28.8632H91.3945L91.048 32.798H94.6283L94.3038 36.4724ZM131.52 39.7451C131.405 41.0259 131.086 42.1928 130.552 43.2457C130.019 44.2986 129.315 45.1996 128.435 45.9486C127.55 46.703 126.516 47.2891 125.328 47.707C124.14 48.1304 122.842 48.3366 121.434 48.3366C120.026 48.3366 118.739 48.1249 117.639 47.707C116.534 47.2891 115.621 46.703 114.889 45.9486C114.163 45.1996 113.63 44.2986 113.294 43.2457C112.959 42.1928 112.849 41.0259 112.964 39.7451L114.141 26.486H119.339L118.2 39.3217C118.151 39.9025 118.178 40.4561 118.283 40.9771C118.387 41.4981 118.585 41.9649 118.86 42.3719C119.141 42.7844 119.531 43.1101 120.026 43.3489C120.521 43.5877 121.142 43.7071 121.874 43.7071C122.605 43.7071 123.243 43.5877 123.788 43.3489C124.327 43.1101 124.778 42.7844 125.141 42.3719C125.504 41.9649 125.779 41.4981 125.966 40.9771C126.153 40.4561 126.274 39.9079 126.329 39.3217L127.467 26.486H132.697L131.52 39.7451Z" fill="url(#paint0_radial_861_1962)"/>
<path d="M6.19819 60.5199H9.916V59.8849H5.46672V58.8646C6.68766 58.756 7.7986 58.6041 8.84905 58.3924L8.99204 58.3653L8.63456 57.7031L8.55207 57.7194C6.18719 58.197 3.78381 58.4358 1.39693 58.4358H1.08894L1.28143 59.1142H1.36943C2.55737 59.0925 3.70131 59.0328 4.77376 58.9351V59.8958H0.335483V60.5308H4.03679C3.64082 60.9433 3.12934 61.3449 2.51337 61.7302C2.0679 62.0179 1.66642 62.2458 1.27594 62.4304C0.896454 62.6203 0.505974 62.7832 0.115494 62.9188L0 62.9568L0.302485 63.5755L0.39598 63.543C1.24844 63.2336 2.14489 62.7669 3.05784 62.159C3.42633 61.9093 3.77831 61.6325 4.09729 61.334C4.36128 61.1007 4.58677 60.8836 4.77926 60.6665V62.5878H5.46672V60.6665C6.38518 61.6868 7.7986 62.6258 9.67401 63.4561L9.7455 63.4887L10.2955 62.8971L10.147 62.8374C8.39807 62.1264 7.06714 61.3503 6.19819 60.5199Z" fill="black"/>
<path d="M2.11743 67.6733H2.8049V66.9677H7.49616V67.6733H8.18362V62.7344H2.11743V67.6733ZM2.8049 64.4874V63.3694H7.49616V64.4874H2.8049ZM7.49616 65.1224V66.3273H2.8049V65.1224H7.49616Z" fill="black"/>
<path d="M15.2507 59.9988L15.3387 60.0856L15.7677 59.5211L15.6962 59.456C15.1792 58.9784 14.6183 58.5496 13.9858 58.148L13.8978 58.0938L13.5073 58.6093L13.6063 58.6745C14.1508 59.0327 14.7008 59.4777 15.2507 59.9988Z" fill="black"/>
<path d="M15.4982 63.3424L14.9262 62.957L14.8822 63.1036C14.4587 64.531 13.8592 65.8553 13.1058 67.0493L13.0508 67.1361L13.6723 67.5649L13.7327 67.4563C14.1287 66.7399 14.4587 66.0832 14.7337 65.4428C15.0252 64.7589 15.2727 64.0751 15.4762 63.4184L15.4982 63.3424Z" fill="black"/>
<path d="M13.9636 61.6734C14.2716 61.9448 14.5631 62.2324 14.7831 62.4604L14.8711 62.5527L15.3001 62.0045L15.2341 61.9394C14.6896 61.3803 14.1176 60.8973 13.5236 60.5011L13.4356 60.4414L13.0452 60.9407L13.1332 61.0059C13.4136 61.2175 13.6886 61.4455 13.9636 61.6734Z" fill="black"/>
<path d="M20.8552 61.8297H23.1046V61.1947H20.6847V59.8596H22.5546V59.2246H20.6847V57.6289H19.9973V59.2246H18.2319V57.6289H17.5499V59.2246H15.977V59.8596H17.5499V61.1947H15.35V61.8297H17.4619C17.2969 62.1391 17.0879 62.4701 16.8349 62.8066C16.45 63.2897 15.977 63.7347 15.427 64.1363L15.3225 64.2123L15.834 64.7008L15.911 64.6465C16.2355 64.3968 16.4994 64.1743 16.7359 63.9409C16.9119 63.7727 17.0879 63.5936 17.2529 63.3928V66.2313C17.2529 66.4484 17.2749 66.6112 17.3244 66.7578C17.3684 66.8934 17.4509 67.002 17.5719 67.0671C17.6269 67.1431 17.7974 67.2082 18.4464 67.2517C19.0238 67.2842 19.8213 67.3059 20.7617 67.3059C21.2512 67.3059 21.6142 67.2734 21.8782 67.2028C22.1477 67.1322 22.3182 67.002 22.3567 66.8337C22.3787 66.7849 22.4007 66.6872 22.4391 66.4104V66.3778C22.4666 66.1553 22.4996 65.8297 22.5271 65.4063V65.3358L21.8067 64.9884L21.7957 65.1513C21.7517 65.9708 21.7077 66.367 21.7022 66.3995C21.6417 66.5081 21.4327 66.6329 20.7672 66.6329C18.4848 66.6329 18.0944 66.5407 18.0339 66.5027C18.0009 66.4701 17.9789 66.443 17.9624 66.3887C17.9514 66.3616 17.9404 66.3073 17.9514 66.2042V65.135H21.0862V63.0834C21.5537 63.5448 22.1092 63.9735 22.7361 64.3697L22.8131 64.4186L23.3466 63.8324L23.2256 63.7673C22.1807 63.1757 21.3887 62.5298 20.8552 61.8297ZM19.9973 59.8596V61.1947H18.2319V59.8596H19.9973ZM17.9294 64.4891V63.4145H20.3768V64.4891H17.9294ZM17.7039 62.7741C17.8964 62.4756 18.0779 62.1608 18.2319 61.8243H20.0523C20.2613 62.1499 20.5032 62.4701 20.7837 62.7741H17.7039Z" fill="black"/>
<path d="M35.5887 65.3914C35.5502 65.7713 35.5172 66.0644 35.4842 66.2815C35.4402 66.5148 35.4072 66.6831 35.3907 66.7536C35.3742 66.7916 35.3302 66.8785 35.2752 66.8785C35.2037 66.8785 35.1212 66.8188 35.0277 66.6939C34.9122 66.5474 34.7857 66.3249 34.6482 66.0209C34.5547 65.8581 34.4777 65.6844 34.4172 65.4999C34.3403 65.31 34.2853 65.1254 34.2358 64.93H34.2413C34.7637 64.1919 35.2092 62.9653 35.5612 61.2774L35.5832 61.1743L34.8572 60.9898L34.8352 61.1037C34.7087 61.7496 34.5602 62.3195 34.3842 62.8459C34.2523 63.2476 34.1093 63.6058 33.9663 63.9097C33.8893 63.6003 33.8288 63.2801 33.7793 62.9273C33.7078 62.5583 33.6528 62.1512 33.6088 61.6411C33.5703 61.2069 33.5373 60.7564 33.5153 60.2734H36.0727V59.6383H35.0277L35.5557 59.2801L35.5117 59.1933C35.3797 58.9436 35.2257 58.6994 35.0717 58.466C34.9342 58.2652 34.7747 58.0536 34.5657 57.793L34.4997 57.7171L33.9443 58.097L34.0103 58.1892C34.1643 58.3955 34.3348 58.6343 34.4942 58.8785C34.6482 59.1173 34.7802 59.3724 34.8902 59.5841L34.9177 59.6383H33.4878C33.4548 59.0793 33.4383 58.4443 33.4493 57.7062V57.5977H32.7178V57.7062C32.7068 58.4335 32.7178 59.0685 32.7563 59.6438H29.627V62.7482C29.616 63.1987 29.5885 63.6329 29.5335 64.04L29.44 63.4646L29.3025 63.5461C28.978 63.7306 28.6205 63.9043 28.2301 64.0562V61.2828H29.4675V60.6478H28.2301V57.9287H27.5426V60.6478H26.2282V61.2828H27.5426V64.3222C27.3446 64.4036 27.1356 64.4796 26.9101 64.5501C26.6846 64.6261 26.4152 64.7184 26.1512 64.7835L26.0137 64.8161L26.3712 65.4782L26.4592 65.4511C26.8496 65.3371 27.3006 65.1688 27.8671 64.9246C28.3126 64.7455 28.8075 64.5176 29.4785 64.1919L29.5115 64.1756C29.5115 64.1756 29.506 64.2082 29.506 64.2245C29.429 64.6641 29.3245 65.044 29.187 65.3534C29.0385 65.6844 28.8625 65.9884 28.659 66.2543C28.45 66.5203 28.2246 66.7591 27.9551 66.987L27.8781 67.0576L28.3181 67.6003L28.4061 67.5298C28.6865 67.2964 28.9395 67.0413 29.1815 66.7428C29.418 66.4334 29.627 66.1078 29.792 65.7604C30.1275 65.0332 30.3035 64.0454 30.309 62.8134V62.3249H31.8159C31.7884 62.8568 31.7554 63.4375 31.7114 63.8771C31.6674 64.3167 31.6234 64.6207 31.5849 64.7726C31.5354 64.9138 31.4474 65.082 31.2769 65.082C31.2054 65.082 31.0789 65.082 30.8974 65.0386C30.7269 65.006 30.5509 64.9518 30.353 64.8758L30.199 64.8161V65.5542L30.2705 65.5813C30.4849 65.6573 30.7049 65.717 30.9084 65.755C31.0789 65.7984 31.2494 65.8147 31.3594 65.7984C31.5354 65.8147 31.7004 65.755 31.8159 65.6356C31.9369 65.5433 32.0414 65.3859 32.1459 65.158C32.2229 64.9572 32.2889 64.5935 32.3604 63.9857C32.4098 63.4809 32.4538 62.8025 32.5033 61.7984V61.6845H30.3035V60.2734H32.7783C32.8443 61.3805 32.9653 62.3955 33.1303 63.2747C33.1798 63.5895 33.2238 63.8283 33.2843 64.0617C33.3338 64.3005 33.3943 64.5284 33.4658 64.7292C32.9378 65.4619 32.2339 66.1295 31.3099 66.7645L31.2164 66.8296L31.6454 67.3724L31.7334 67.3181C32.5418 66.7916 33.1963 66.2272 33.7353 65.5813C33.8563 65.9395 34.0048 66.2597 34.1698 66.5311C34.5657 67.215 34.9232 67.5515 35.2752 67.5515C35.5062 67.5515 35.7097 67.4592 35.8692 67.2692C35.9407 67.139 36.0067 66.949 36.0727 66.6885C36.1387 66.4334 36.1937 66.1078 36.2377 65.7007V65.641L35.6052 65.1363L35.5887 65.3914Z" fill="black"/>
<path d="M44.8393 59.0292L44.7898 58.9424C44.6468 58.6982 44.4763 58.4539 44.2728 58.1934C44.1024 57.9763 43.9154 57.7538 43.6789 57.5041L43.6129 57.4336L43.0079 57.8461L43.0904 57.9383C43.4479 58.3291 43.7504 58.7307 43.9924 59.1378H39.0371V59.8596H43.7779V61.5693H40.2195V66.595H40.995V62.2911H43.7779V67.6751H44.5533V62.2911H47.4682V65.439C47.4682 65.6561 47.4187 65.7375 47.3912 65.7592C47.3747 65.77 47.3472 65.7918 47.2812 65.7863C46.8577 65.8026 46.3572 65.6886 45.7963 65.4607L45.6313 65.3956L45.6973 66.1445L45.7578 66.1717C46.0053 66.2694 46.2692 66.3453 46.5552 66.3942C46.7917 66.443 47.0392 66.4702 47.2812 66.4702C47.9082 66.4702 48.2381 66.1445 48.2381 65.5258V61.5747H44.5533V59.8651H49.2941V59.1432H44.6853L44.8393 59.0292Z" fill="black"/>
<path d="M60.7553 65.8475C60.2933 65.435 59.9083 65.0008 59.5618 64.5015C59.1934 64.0347 58.8854 63.5137 58.6434 62.9601C58.4124 62.4391 58.2419 61.9018 58.1209 61.3265H61.9267V60.5612H57.1915C57.2959 59.7851 57.3894 58.8624 57.4774 57.7444L57.4884 57.625H56.713V57.7281C56.68 58.0918 56.647 58.4337 56.614 58.7647C56.5975 58.9384 56.581 59.1121 56.5645 59.2804C56.5205 59.6983 56.4655 60.1433 56.405 60.5666H52.4727V61.3319H56.2785C56.163 61.8963 56.0255 62.4282 55.866 62.9113C55.6955 63.416 55.5085 63.8231 55.3215 64.1324C54.6231 65.2613 53.5286 66.2328 52.0657 67.0144L51.9282 67.0849L52.5222 67.6277L52.5937 67.5897C53.4131 67.1446 54.0896 66.6887 54.6671 66.184C55.2446 65.6684 55.7175 65.0985 56.064 64.5015C56.471 63.8122 56.812 62.743 57.0705 61.3319H57.3015C57.4389 62.0103 57.6204 62.6182 57.8679 63.1826C58.1539 63.8339 58.4729 64.3929 58.8414 64.8814C59.2264 65.4621 59.6388 65.9615 60.1063 66.4119C60.5518 66.8407 61.0633 67.2423 61.6737 67.6331L61.7562 67.6874L62.3392 67.0144L62.2292 66.9492C61.6682 66.6073 61.1733 66.2437 60.7553 65.8475Z" fill="black"/>
<path d="M66.2664 62.6601H74.1805V63.7402H74.857V62.0251H74.1585L74.362 58.1283H71.7607V58.7633H73.6526L73.6141 59.4254H71.7222V60.0713H73.5811L73.5481 60.69H71.5462V61.325H73.5151L73.4711 62.0251H71.3262L71.6947 61.6181L71.6067 61.5475C71.4747 61.439 71.3372 61.325 71.2052 61.1947C71.1062 61.1133 71.0017 61.0265 70.8972 60.9342C71.0952 60.7443 71.2877 60.5163 71.4967 60.2287L71.5462 60.1581L71.3152 59.903L71.6947 59.4905L71.6067 59.42C71.4802 59.3169 71.3592 59.2083 71.2327 59.0943C71.1392 59.0238 71.0512 58.9478 70.9577 58.8664C71.0622 58.7633 71.1722 58.6493 71.2822 58.5245C71.4252 58.3725 71.5517 58.2097 71.6672 58.0577L71.7222 57.9871L71.3097 57.5312L71.2272 57.6398C71.0182 57.9274 70.7707 58.2042 70.4737 58.481C70.1877 58.2802 69.8743 58.0686 69.4673 57.8135L69.3848 57.7592L68.9943 58.2151L69.0988 58.2857C69.3133 58.4268 69.5278 58.5733 69.7533 58.7253L69.9842 58.8827C69.8248 58.9966 69.6873 59.0889 69.5498 59.1649C69.3628 59.2897 69.1593 59.3928 68.9503 59.4743H68.9393V59.4254H66.9099V59.0509C67.2124 59.0021 67.5314 58.9207 67.8779 58.8175C68.2078 58.7144 68.5378 58.5842 68.8788 58.4268L68.9888 58.3779L68.6148 57.7755L68.5268 57.8135C67.8119 58.1228 67.0694 58.3345 66.3104 58.4376L66.2114 58.4485L66.2994 62.0305H65.5845V63.7456H66.2719V62.6601H66.2664ZM70.4737 59.2843C70.6607 59.458 70.8477 59.6371 71.0457 59.8216C70.8532 60.093 70.6387 60.3318 70.4022 60.5543C70.2702 60.4675 70.1327 60.3752 70.0007 60.2829C69.8358 60.169 69.6763 60.0604 69.5058 59.9519L69.4563 59.9193C69.6048 59.8433 69.7533 59.7619 69.9128 59.6642C70.1272 59.5394 70.3087 59.4146 70.4737 59.2843ZM70.4077 61.3521C70.5177 61.4552 70.6277 61.5529 70.7377 61.6506C70.8642 61.7755 70.9962 61.9057 71.1337 62.0305H69.2858C69.6708 61.8569 70.0392 61.6343 70.4077 61.3521ZM68.9338 59.7022L69.1593 60.0604L69.2473 60.017C69.2913 59.9953 69.3298 59.979 69.3738 59.9573L69.0383 60.3589L69.3518 60.5706C69.5333 60.6954 69.7203 60.8202 69.9073 60.9505C69.6158 61.1676 69.2748 61.363 68.8953 61.5312L68.7798 61.5855L69.0658 62.0251H66.9319L66.9209 61.2816H69.0053V60.6466H66.9099V60.0713H68.9338V59.7022Z" fill="black"/>
<path d="M75.2034 64.9922H70.4792C70.4792 64.9922 70.4792 64.9759 70.4792 64.9705V64.9542C71.0181 64.7968 71.5021 64.6232 71.9531 64.4223C72.4701 64.2053 72.921 63.9827 73.3335 63.7276L73.3885 63.6951V63.1523H67.1023V63.7873H71.9256C71.3756 64.0153 70.7926 64.2107 70.1822 64.3681C70.1712 64.3572 70.1657 64.3409 70.1547 64.3192L70.1382 64.2921C70.1107 64.2541 70.0832 64.2215 70.0667 64.1781L70.0227 64.0696L69.4232 64.3409L69.4892 64.4441C69.5222 64.4929 69.5497 64.5472 69.5827 64.6015C69.6157 64.6612 69.6487 64.7209 69.6817 64.7643C69.7202 64.8403 69.7532 64.9108 69.7862 64.9814H65.2324V65.6164H69.9787L70.0282 65.9583C70.0502 66.1103 70.0612 66.2677 70.0722 66.4196C70.0612 66.5499 70.0502 66.6747 70.0337 66.7561C70.0172 66.8267 69.9952 66.8538 69.9952 66.8538C69.9622 66.8701 69.9237 66.881 69.8852 66.8864C69.8357 66.8972 69.7972 66.9027 69.7587 66.9027C69.4287 66.9027 69.0657 66.8212 68.6477 66.653L68.4828 66.5879L68.5488 67.3423L68.6202 67.364C68.8292 67.4291 69.0382 67.4834 69.2527 67.5268C69.4892 67.5648 69.6927 67.5811 69.8797 67.5811C70.1217 67.5811 70.3307 67.5214 70.4957 67.3911C70.6771 67.2392 70.7596 66.9244 70.7596 66.4142V66.3491C70.7431 66.2351 70.7321 66.1048 70.7156 65.9692L70.7046 65.9095C70.6936 65.8172 70.6771 65.7141 70.6606 65.6109H75.2089V64.9922H75.2034Z" fill="black"/>
<path d="M6.16503 75.7707C6.07704 75.9498 5.95604 76.1289 5.81305 76.3026C5.67006 76.4763 5.50507 76.6337 5.32907 76.7748C5.15308 76.9105 4.95509 77.0244 4.7461 77.1113C4.53711 77.1981 4.32263 77.2415 4.09714 77.2415C3.71766 77.2415 3.36567 77.1764 3.04119 77.0461C2.71671 76.9159 2.43622 76.7259 2.19973 76.4871C1.96325 76.2429 1.77625 75.9444 1.63876 75.5916C1.50127 75.2388 1.43527 74.8372 1.43527 74.3867C1.43527 73.9362 1.50677 73.5292 1.64426 73.1764C1.78175 72.8236 1.97424 72.5143 2.21073 72.2646C2.45272 72.015 2.73871 71.825 3.05769 71.6893C3.38217 71.5536 3.72866 71.4885 4.10264 71.4885C4.53161 71.4885 4.9166 71.6079 5.24658 71.8413C5.57656 72.0801 5.88455 72.46 6.15403 72.9756L6.18153 73.0299L6.7645 72.65L6.737 72.6011C6.59951 72.3786 6.43452 72.1669 6.24203 71.9607C6.04954 71.7544 5.82955 71.5753 5.58206 71.4179C5.33457 71.2605 5.05959 71.1357 4.7571 71.0435C4.45462 70.9512 4.12464 70.9023 3.76715 70.9023C3.40967 70.9023 3.04119 70.9458 2.71671 71.0272C2.38672 71.114 2.07874 71.2334 1.80925 71.3854C1.53427 71.5373 1.28128 71.7219 1.06129 71.939C0.841302 72.1561 0.654312 72.3894 0.50032 72.6445C0.346328 72.8996 0.230833 73.1818 0.148338 73.4695C0.0658418 73.7626 0.0273438 74.0665 0.0273438 74.3759C0.0273438 74.8372 0.115339 75.2822 0.29133 75.7001C0.467321 76.1126 0.720309 76.4817 1.03929 76.7965C1.36378 77.1058 1.75426 77.3555 2.19973 77.54C2.65071 77.7191 3.15668 77.8114 3.70666 77.8114C4.08614 77.8114 4.43812 77.7625 4.7461 77.6703C5.05409 77.578 5.34007 77.4532 5.58756 77.2958C5.83505 77.1384 6.05504 76.9539 6.24203 76.7531C6.42902 76.5522 6.59401 76.3352 6.7315 76.1126L6.759 76.0638L6.19253 75.7056L6.16503 75.7707Z" fill="#A40000"/>
<path d="M8.99189 70.2314C8.93689 70.1771 8.8654 70.1283 8.7884 70.0957C8.63441 70.0306 8.45292 70.0306 8.29893 70.0957C8.22193 70.1283 8.15593 70.1717 8.09544 70.2314C8.03494 70.2911 7.99094 70.3562 7.95794 70.4322C7.92495 70.5082 7.90845 70.5896 7.90845 70.6765C7.90845 70.7633 7.92495 70.8447 7.95794 70.9207C7.99094 70.9967 8.03494 71.0618 8.09544 71.1215C8.15044 71.1758 8.22193 71.2246 8.29893 71.2572C8.37592 71.2897 8.45842 71.306 8.54641 71.306C8.63441 71.306 8.71691 71.2897 8.7939 71.2572C8.8709 71.2246 8.9369 71.1812 8.99739 71.1215C9.05789 71.0672 9.10189 70.9967 9.13488 70.9207C9.16788 70.8447 9.18438 70.7633 9.18438 70.6765C9.18438 70.5896 9.16788 70.5082 9.13488 70.4322C9.09639 70.3562 9.05239 70.2911 8.99189 70.2314Z" fill="#A40000"/>
<path d="M7.99146 72.7492V77.6665H9.1079V72.4453H8.76142L7.99146 72.7492Z" fill="#A40000"/>
<path d="M13.0619 76.7642C12.9959 76.8401 12.9189 76.9053 12.8309 76.9595C12.7484 77.0084 12.6549 77.0355 12.5505 77.0355C12.479 77.0355 12.413 77.0247 12.3525 76.9975C12.292 76.9704 12.2425 76.9378 12.1985 76.8944C12.1545 76.851 12.1215 76.7967 12.094 76.7424C12.0665 76.6827 12.0555 76.623 12.0555 76.5525V73.0735H13.1884V72.5362H12.0555V70.832H11.72L10.9445 71.1305V72.5525L10.1031 72.7805L10.0591 72.7913V73.079H10.9445V76.5579C10.9445 76.737 10.9665 76.8998 11.005 77.0464C11.049 77.1929 11.1095 77.3232 11.1975 77.4317C11.2855 77.5403 11.3955 77.6271 11.5275 77.6868C11.6595 77.7465 11.819 77.7791 11.995 77.7791C12.3305 77.7791 12.622 77.7085 12.8474 77.5674C13.0784 77.4317 13.2654 77.2418 13.4084 76.9975L13.4359 76.9487L13.0949 76.7262L13.0619 76.7642Z" fill="#A40000"/>
<path d="M16.7193 76.0886L14.7999 72.5391H13.5239L16.1528 77.3803L15.8228 78.1076C15.7843 78.1944 15.7348 78.2921 15.6743 78.3952C15.6193 78.4929 15.5478 78.5906 15.4763 78.6774C15.4048 78.7588 15.3223 78.8294 15.2343 78.8891C15.1518 78.9434 15.0638 78.9705 14.9649 78.9705C14.8879 78.9705 14.8109 78.9705 14.7449 78.9488C14.6789 78.9271 14.6184 78.9162 14.5634 78.8891C14.5084 78.8674 14.4534 78.8403 14.4094 78.8185C14.3599 78.7914 14.3159 78.7697 14.2719 78.7534L14.2224 78.7317L13.7769 79.7141L13.7604 79.7521L13.7934 79.7792C13.8759 79.8389 13.9749 79.8932 14.0959 79.9312C14.2114 79.9691 14.3379 79.9854 14.4589 79.9854C14.6239 79.9854 14.7944 79.9583 14.9704 79.8986C15.1463 79.8389 15.3168 79.7466 15.4763 79.6272C15.6358 79.5078 15.7953 79.3558 15.9383 79.1713C16.0813 78.9868 16.2078 78.7697 16.3178 78.52L18.9467 72.5391H18.2812L16.7193 76.0886Z" fill="#A40000"/>
<path d="M26.4812 75.333C26.4812 75.6044 26.4372 75.8594 26.3437 76.0928C26.2502 76.3262 26.1182 76.5379 25.9477 76.7115C25.7772 76.8906 25.5682 77.0317 25.3262 77.1349C25.0842 77.238 24.8038 77.2923 24.5013 77.2923C24.1988 77.2923 23.9238 77.238 23.6763 77.1349C23.4288 77.0317 23.2198 76.8906 23.0493 76.7115C22.8789 76.5324 22.7414 76.3262 22.6479 76.0928C22.5544 75.854 22.5049 75.5989 22.5049 75.333V71.0562H21.2839V75.3004C21.2839 75.6478 21.3444 75.9734 21.4709 76.2773C21.5919 76.5813 21.7789 76.8526 22.0209 77.0806C22.2629 77.3085 22.5654 77.4876 22.9174 77.6179C23.2693 77.7482 23.6818 77.8133 24.1438 77.8133C24.6608 77.8133 25.1062 77.7482 25.4747 77.6179C25.8432 77.4876 26.1512 77.3085 26.3932 77.0806C26.6297 76.8526 26.8112 76.5867 26.9211 76.2882C27.0311 75.9897 27.0861 75.664 27.0861 75.3275V71.0508H26.4867V75.333H26.4812Z" fill="#A40000"/>
<path d="M32.3766 72.9066C32.2556 72.7655 32.1126 72.6516 31.9531 72.5701C31.7936 72.4887 31.6176 72.4453 31.4306 72.4453C31.0841 72.4453 30.7322 72.5322 30.3967 72.7058C30.0942 72.8578 29.8027 73.0803 29.5222 73.3734V72.4453H29.1757L28.3948 72.7438V77.6719H29.5222V73.927C29.6267 73.8293 29.7367 73.737 29.8522 73.6556C29.9732 73.5688 30.0942 73.4928 30.2152 73.4331C30.3362 73.3734 30.4572 73.3245 30.5727 73.2866C30.8147 73.216 31.0236 73.216 31.1941 73.2974C31.2821 73.3354 31.3646 73.4005 31.4306 73.4765C31.4966 73.5525 31.5516 73.6556 31.5901 73.775C31.6286 73.8944 31.6451 74.0355 31.6451 74.1984V77.6773H32.7671V74.0247C32.7671 73.813 32.7341 73.6068 32.6626 73.4168C32.5911 73.216 32.4976 73.0478 32.3766 72.9066Z" fill="#A40000"/>
<path d="M34.2634 72.7492V77.6665H35.3799V72.4453H35.0279L34.2634 72.7492Z" fill="#A40000"/>
<path d="M35.2644 70.2314C35.2094 70.1771 35.1379 70.1283 35.0609 70.0957C34.9069 70.0306 34.7254 70.0306 34.5714 70.0957C34.4944 70.1283 34.4284 70.1717 34.3679 70.2314C34.3074 70.2911 34.2634 70.3562 34.2304 70.4322C34.1974 70.5082 34.1809 70.5896 34.1809 70.6765C34.1809 70.7633 34.1974 70.8447 34.2304 70.9207C34.2634 70.9967 34.3074 71.0618 34.3679 71.1215C34.4229 71.1758 34.4944 71.2246 34.5714 71.2572C34.6484 71.2897 34.7309 71.306 34.8189 71.306C34.9069 71.306 34.9894 71.2897 35.0664 71.2572C35.1434 71.2246 35.2094 71.1812 35.2699 71.1215C35.3303 71.0672 35.3743 70.9967 35.4073 70.9207C35.4403 70.8447 35.4568 70.7633 35.4568 70.6765C35.4568 70.5896 35.4403 70.5082 35.4073 70.4322C35.3688 70.3562 35.3249 70.2911 35.2644 70.2314Z" fill="#A40000"/>
<path d="M38.9431 76.2568L37.1832 72.5391H36.0007L38.4371 77.6896L38.4536 77.7222H38.8716L41.176 72.6205L41.2145 72.5391H40.6315L38.9431 76.2568Z" fill="#A40000"/>
<path d="M46.0488 75.7111C46.0048 75.863 45.9278 76.0096 45.8178 76.1453C45.7078 76.2864 45.5703 76.4166 45.4109 76.5252C45.2514 76.6337 45.0699 76.726 44.8774 76.7965C44.6849 76.8617 44.4759 76.8997 44.2669 76.8997C44.0194 76.8997 43.7829 76.84 43.5739 76.7314C43.365 76.6174 43.178 76.46 43.024 76.2592C42.87 76.0584 42.749 75.8088 42.661 75.532C42.5785 75.266 42.5345 74.9784 42.5345 74.669H46.3238V74.6147C46.3238 74.3325 46.2688 74.0557 46.1533 73.7952C46.0378 73.5347 45.8783 73.3013 45.6748 73.1059C45.4714 72.9051 45.2239 72.7477 44.9379 72.6283C44.6574 72.5089 44.3384 72.4492 44.0029 72.4492C43.6179 72.4492 43.266 72.5198 42.9525 72.6663C42.639 72.8074 42.3695 73.0082 42.144 73.2633C41.924 73.5184 41.748 73.8223 41.627 74.1697C41.5061 74.517 41.4456 74.897 41.4456 75.304C41.4456 75.6459 41.5116 75.9716 41.649 76.2701C41.781 76.574 41.968 76.8345 42.1935 77.0571C42.4245 77.2796 42.694 77.4587 43.002 77.5889C43.31 77.7192 43.6454 77.7843 43.9974 77.7843C44.2669 77.7843 44.5309 77.7355 44.7949 77.6324C45.0534 77.5347 45.2954 77.3936 45.5154 77.2253C45.7353 77.0571 45.9278 76.8508 46.0928 76.6229C46.2578 76.3949 46.3788 76.1453 46.4558 75.8793L46.4668 75.8305L46.0708 75.6568L46.0488 75.7111ZM42.5455 74.148C42.562 73.9852 42.6005 73.8386 42.661 73.6975C42.727 73.5401 42.815 73.4044 42.9195 73.2905C43.024 73.1765 43.145 73.0896 43.2715 73.0245C43.5629 72.8834 43.8984 72.9105 44.1734 73.0245C44.3274 73.0896 44.4594 73.1819 44.5749 73.2959C44.6904 73.4099 44.7784 73.5455 44.8444 73.7029C44.9049 73.8441 44.9324 73.996 44.9434 74.1534L42.5455 74.1426V74.148Z" fill="#A40000"/>
<path d="M50.6802 72.5026C50.3667 72.4158 50.0312 72.4212 49.7177 72.5189C49.5527 72.5678 49.3932 72.6437 49.2447 72.736C49.0962 72.8283 48.9587 72.9422 48.8378 73.0671C48.7553 73.1539 48.6783 73.2462 48.6178 73.3439L48.4968 72.4375H48.2933L47.5178 72.7306V77.6641H48.6398V74.1254C48.7058 73.9897 48.7828 73.8649 48.8708 73.7618C48.9587 73.6587 49.0577 73.5718 49.1622 73.5013C49.2667 73.4361 49.3767 73.3819 49.4922 73.3493C49.6847 73.295 49.8827 73.2896 50.0807 73.3059C50.1577 73.3059 50.2292 73.3276 50.3007 73.3493C50.3722 73.371 50.4437 73.409 50.5097 73.447C50.5757 73.4904 50.6417 73.5447 50.7077 73.6098L50.7682 73.6804L51.1366 72.7143L51.0981 72.6872C50.9716 72.6057 50.8287 72.5406 50.6802 72.5026Z" fill="#A40000"/>
<path d="M54.7665 75.197C54.6235 75.0776 54.464 74.969 54.2825 74.8768C54.1065 74.7845 53.925 74.6977 53.738 74.6217L53.1991 74.3937C53.0231 74.3232 52.8691 74.2363 52.7316 74.1495C52.5996 74.0627 52.4896 73.9704 52.4126 73.8619C52.3356 73.7587 52.2971 73.6393 52.2971 73.5036C52.2971 73.4222 52.3191 73.3463 52.3631 73.2703C52.4071 73.1943 52.4676 73.1292 52.5446 73.0749C52.6216 73.0206 52.7206 72.9718 52.8306 72.9392C52.9461 72.9066 53.0726 72.8904 53.2101 72.8904C53.463 72.8904 53.7105 72.9663 53.936 73.1075C54.167 73.254 54.376 73.4819 54.563 73.7805L54.596 73.8402L55.058 73.4331L55.025 73.3897C54.8655 73.1889 54.717 73.026 54.574 72.9066C54.431 72.7818 54.288 72.6841 54.1395 72.6136C53.9965 72.5484 53.848 72.4996 53.694 72.4779C53.5455 72.4562 53.3806 72.4453 53.2156 72.4453C52.9571 72.4453 52.7206 72.4833 52.5006 72.5539C52.2861 72.6244 52.0936 72.7275 51.9341 72.8578C51.7746 72.9881 51.6481 73.14 51.5601 73.3191C51.4721 73.4982 51.4226 73.6936 51.4226 73.8999C51.4226 74.1169 51.4611 74.3123 51.5436 74.4806C51.6261 74.6434 51.7306 74.7899 51.8626 74.9148C51.9946 75.0396 52.1431 75.1482 52.3081 75.2404C52.4676 75.3273 52.6326 75.4141 52.8086 75.4955C52.9791 75.5769 53.1441 75.6529 53.3036 75.7289C53.463 75.7994 53.606 75.8808 53.727 75.9731C53.848 76.0599 53.947 76.1576 54.0185 76.2662C54.09 76.3693 54.123 76.4941 54.123 76.6352C54.123 76.7221 54.101 76.8035 54.0625 76.8849C54.0185 76.9663 53.958 77.0423 53.881 77.1074C53.804 77.1726 53.705 77.2214 53.6005 77.2594C53.3695 77.3408 53.0781 77.33 52.8526 77.2703C52.7371 77.2377 52.6161 77.1834 52.5061 77.1129C52.3906 77.0423 52.2806 76.9446 52.1706 76.8252C52.0606 76.7112 51.9451 76.5647 51.8241 76.3964L51.7856 76.3422L51.2852 76.7872L51.3182 76.8306C51.4721 77.0314 51.6316 77.1943 51.7966 77.3137C51.9561 77.4385 52.1211 77.5362 52.2861 77.6013C52.4511 77.6719 52.6161 77.7153 52.7756 77.7424C52.9351 77.7641 53.0946 77.775 53.2431 77.775C53.573 77.775 53.87 77.737 54.1175 77.6556C54.365 77.5742 54.574 77.4656 54.739 77.3245C54.904 77.1834 55.0305 77.0152 55.113 76.8252C55.1955 76.6353 55.2395 76.429 55.2395 76.2065C55.2395 75.984 55.1955 75.794 55.1075 75.6312C55.025 75.4684 54.9095 75.3218 54.7665 75.197Z" fill="#A40000"/>
<path d="M57.3898 70.2314C57.3348 70.1771 57.2634 70.1283 57.1864 70.0957C57.0324 70.0306 56.8509 70.0306 56.6969 70.0957C56.6199 70.1283 56.5539 70.1717 56.4934 70.2314C56.4329 70.2911 56.3889 70.3562 56.3559 70.4322C56.3229 70.5082 56.3064 70.5896 56.3064 70.6765C56.3064 70.7633 56.3229 70.8447 56.3559 70.9207C56.3889 70.9967 56.4329 71.0618 56.4934 71.1215C56.5484 71.1758 56.6199 71.2246 56.6969 71.2572C56.7739 71.2897 56.8564 71.306 56.9444 71.306C57.0324 71.306 57.1149 71.2897 57.1919 71.2572C57.2688 71.2246 57.3348 71.1812 57.3953 71.1215C57.4558 71.0672 57.4998 70.9967 57.5328 70.9207C57.5658 70.8447 57.5823 70.7633 57.5823 70.6765C57.5823 70.5896 57.5658 70.5082 57.5328 70.4322C57.4943 70.3562 57.4503 70.2911 57.3898 70.2314Z" fill="#A40000"/>
<path d="M56.3887 72.7492V77.6665H57.5051V72.4453H57.1531L56.3887 72.7492Z" fill="#A40000"/>
<path d="M61.4594 76.7642C61.3934 76.8401 61.3164 76.9053 61.2284 76.9595C61.1459 77.0084 61.0524 77.0355 60.9479 77.0355C60.8764 77.0355 60.8104 77.0247 60.7499 76.9975C60.6894 76.9704 60.6399 76.9378 60.5959 76.8944C60.552 76.851 60.519 76.7967 60.4915 76.7424C60.464 76.6827 60.453 76.623 60.453 76.5525V73.0735H61.5859V72.5362H60.453V70.832H60.1065L59.331 71.1305V72.5525L58.4896 72.7805L58.4456 72.7913V73.079H59.331V76.5579C59.331 76.737 59.353 76.8998 59.3915 77.0464C59.4355 77.1929 59.496 77.3232 59.584 77.4317C59.672 77.5403 59.782 77.6271 59.914 77.6868C60.046 77.7465 60.2055 77.7791 60.3815 77.7791C60.7169 77.7791 61.0084 77.7085 61.2339 77.5674C61.4649 77.4317 61.6519 77.2418 61.7949 76.9975L61.8224 76.9487L61.4814 76.7262L61.4594 76.7642Z" fill="#A40000"/>
<path d="M65.1167 76.0886L63.1973 72.5391H61.9214L64.5503 77.3803L64.2203 78.1076C64.1818 78.1944 64.1323 78.2921 64.0718 78.3952C64.0168 78.4929 63.9453 78.5906 63.8738 78.6774C63.8023 78.7588 63.7198 78.8294 63.6318 78.8891C63.5493 78.9434 63.4613 78.9705 63.3623 78.9705C63.2853 78.9705 63.2083 78.9705 63.1423 78.9488C63.0763 78.9271 63.0158 78.9162 62.9608 78.8891C62.9058 78.8674 62.8508 78.8403 62.8068 78.8185C62.7573 78.7914 62.7133 78.7697 62.6693 78.7534L62.6199 78.7317L62.1744 79.7141L62.1579 79.7521L62.1909 79.7792C62.2734 79.8389 62.3724 79.8932 62.4934 79.9312C62.6089 79.9691 62.7353 79.9854 62.8563 79.9854C63.0213 79.9854 63.1918 79.9583 63.3678 79.8986C63.5438 79.8389 63.7143 79.7466 63.8738 79.6272C64.0333 79.5078 64.1928 79.3558 64.3358 79.1713C64.4788 78.9868 64.6053 78.7697 64.7152 78.52L67.3441 72.5391H66.6786L65.1167 76.0886Z" fill="#A40000"/>
<path d="M74.345 73.1702C74.103 72.9422 73.8115 72.7631 73.4815 72.6329C73.1515 72.5026 72.783 72.4375 72.3926 72.4375C72.0021 72.4375 71.6226 72.5081 71.2926 72.6492C70.9571 72.7903 70.6656 72.9857 70.4237 73.2353C70.1817 73.4796 69.9892 73.7726 69.8517 74.1037C69.7142 74.4348 69.6482 74.793 69.6482 75.1675C69.6482 75.542 69.7197 75.8676 69.8517 76.1824C69.9892 76.4972 70.1817 76.774 70.4237 77.0074C70.6656 77.2407 70.9571 77.4307 71.2926 77.5664C71.6281 77.7021 71.9966 77.7726 72.3926 77.7726C72.7885 77.7726 73.157 77.6966 73.487 77.5501C73.817 77.4035 74.1085 77.1973 74.3505 76.9422C74.5924 76.6871 74.7849 76.3886 74.9224 76.0467C75.0599 75.7048 75.1259 75.3411 75.1259 74.9558C75.1259 74.6085 75.0544 74.2719 74.9224 73.968C74.7794 73.6695 74.5869 73.3981 74.345 73.1702ZM73.102 77.1485C72.948 77.2407 72.772 77.2896 72.585 77.2896C72.3211 77.2896 72.0791 77.2244 71.8756 77.0888C71.6666 76.9531 71.4851 76.7685 71.3421 76.5406C71.1936 76.3072 71.0836 76.0304 71.0066 75.7211C70.9296 75.4063 70.8911 75.0643 70.8911 74.7061C70.8911 74.4619 70.9241 74.2285 70.9956 74.0114C71.0671 73.7943 71.1606 73.6044 71.2761 73.4416C71.3916 73.2842 71.5291 73.1539 71.6776 73.0616C71.8261 72.9694 71.9801 72.926 72.1396 72.926C72.4531 72.926 72.728 72.9911 72.9425 73.1213C73.1625 73.2516 73.344 73.4307 73.4815 73.6587C73.619 73.8866 73.718 74.158 73.784 74.4673C73.8445 74.7821 73.8775 75.1186 73.8775 75.4768C73.8775 75.7211 73.8445 75.9544 73.7785 76.177C73.7125 76.3941 73.6245 76.5894 73.509 76.7577C73.3935 76.9205 73.256 77.0508 73.102 77.1485Z" fill="#A40000"/>
<path d="M79.9058 70.5659C79.7903 70.4411 79.6583 70.3326 79.5098 70.2457C79.3668 70.1589 79.2018 70.0938 79.0313 70.0449C78.6078 69.9309 78.1349 69.9581 77.7334 70.1372C77.4969 70.2457 77.2879 70.3923 77.1174 70.5768C76.9414 70.7613 76.8039 70.973 76.6994 71.2226C76.6005 71.4669 76.5454 71.7328 76.5454 72.015V72.5361H75.4895V73.0734H76.5454V77.6649H77.6729V73.0734H79.0258V72.5361H77.6729V71.4126C77.6729 71.2932 77.6894 71.1684 77.7224 71.0544C77.7554 70.9404 77.8049 70.8373 77.8654 70.7505C77.9259 70.6636 77.9974 70.5931 78.0799 70.5388C78.1624 70.49 78.2504 70.4628 78.3494 70.4628C78.5089 70.4628 78.6463 70.4954 78.7508 70.5605C78.8608 70.6256 78.9488 70.707 79.0203 70.8102C79.0918 70.9133 79.1523 71.0327 79.2018 71.1629C79.2513 71.2932 79.2953 71.4289 79.3283 71.5537L79.3503 71.6297L80.1918 71.0327L80.1753 70.9893C80.1093 70.8373 80.0158 70.6908 79.9058 70.5659Z" fill="#A40000"/>
<path d="M86.7695 74.018H83.5742V71.0547H82.3533V77.6652H83.5742V74.5499H86.7695V77.6652H87.9905V71.0547H86.7695V74.018Z" fill="#A40000"/>
<path d="M93.7702 73.1702C93.5283 72.9422 93.2368 72.7631 92.9068 72.6329C92.5768 72.5026 92.2083 72.4375 91.8178 72.4375C91.4274 72.4375 91.0479 72.5081 90.7179 72.6492C90.3824 72.7903 90.0909 72.9857 89.8489 73.2353C89.607 73.4796 89.4145 73.7726 89.277 74.1037C89.1395 74.4348 89.0735 74.793 89.0735 75.1675C89.0735 75.542 89.145 75.8676 89.277 76.1824C89.4145 76.4972 89.607 76.774 89.8489 77.0074C90.0909 77.2407 90.3824 77.4307 90.7179 77.5664C91.0534 77.7021 91.4219 77.7726 91.8178 77.7726C92.2138 77.7726 92.5823 77.6966 92.9123 77.5501C93.2423 77.4035 93.5338 77.1973 93.7757 76.9422C94.0177 76.6871 94.2102 76.3886 94.3477 76.0467C94.4852 75.7048 94.5512 75.3411 94.5512 74.9558C94.5512 74.6085 94.4797 74.2719 94.3477 73.968C94.2047 73.6695 94.0122 73.3981 93.7702 73.1702ZM92.5218 77.1485C92.3678 77.2407 92.1918 77.2896 92.0048 77.2896C91.7408 77.2896 91.4989 77.2244 91.2954 77.0888C91.0864 76.9531 90.9049 76.7685 90.7619 76.5406C90.6134 76.3072 90.5034 76.0304 90.4264 75.7211C90.3494 75.4063 90.3109 75.0643 90.3109 74.7061C90.3109 74.4619 90.3439 74.2285 90.4154 74.0114C90.4869 73.7943 90.5804 73.6044 90.6959 73.4416C90.8114 73.2842 90.9489 73.1539 91.0974 73.0616C91.2459 72.9694 91.3999 72.926 91.5594 72.926C91.8728 72.926 92.1478 72.9911 92.3623 73.1213C92.5823 73.2516 92.7638 73.4307 92.9013 73.6587C93.0388 73.8866 93.1378 74.158 93.2038 74.4673C93.2643 74.7821 93.2973 75.1186 93.2973 75.4768C93.2973 75.7211 93.2643 75.9544 93.1983 76.177C93.1323 76.3941 93.0443 76.5894 92.9288 76.7577C92.8188 76.9205 92.6813 77.0508 92.5218 77.1485Z" fill="#A40000"/>
<path d="M99.5948 72.9066C99.4738 72.7655 99.3308 72.6516 99.1714 72.5701C99.0119 72.4887 98.8359 72.4453 98.6489 72.4453C98.3024 72.4453 97.9504 72.5322 97.6149 72.7058C97.3125 72.8578 97.021 73.0803 96.7405 73.3734V72.4453H96.394L95.613 72.7438V77.6719H96.7405V73.927C96.845 73.8293 96.955 73.737 97.0705 73.6556C97.1915 73.5688 97.3124 73.4928 97.4334 73.4331C97.5544 73.3734 97.6754 73.3245 97.7909 73.2866C98.0329 73.216 98.2419 73.216 98.4124 73.2974C98.5004 73.3354 98.5829 73.4005 98.6489 73.4765C98.7149 73.5525 98.7699 73.6556 98.8084 73.775C98.8469 73.8944 98.8634 74.0355 98.8634 74.1984V77.6773H99.9853V74.0247C99.9853 73.813 99.9523 73.6068 99.8808 73.4168C99.8148 73.216 99.7158 73.0478 99.5948 72.9066Z" fill="#A40000"/>
<path d="M104.588 72.6678C104.484 72.6244 104.368 72.5864 104.242 72.5539C104.11 72.5213 103.967 72.4942 103.824 72.4725C103.675 72.4507 103.521 72.4453 103.367 72.4453C103.048 72.4453 102.746 72.4942 102.471 72.5919C102.196 72.6895 101.954 72.8198 101.745 72.9881C101.536 73.1563 101.371 73.3571 101.255 73.5796C101.14 73.8076 101.079 74.0464 101.079 74.3015C101.079 74.6434 101.178 74.9528 101.382 75.2187C101.558 75.4521 101.794 75.6366 102.086 75.7832C101.987 75.8266 101.888 75.8808 101.8 75.9405C101.673 76.022 101.563 76.1197 101.464 76.2228C101.365 76.3259 101.288 76.4344 101.233 76.5484C101.173 76.6678 101.145 76.7818 101.145 76.8903C101.145 76.9663 101.162 77.0423 101.2 77.1129C101.239 77.178 101.288 77.2431 101.354 77.2974C101.415 77.3517 101.492 77.4005 101.58 77.4439C101.635 77.4711 101.69 77.4982 101.75 77.5199C101.646 77.6013 101.547 77.6827 101.437 77.7641C101.305 77.8727 101.178 77.9867 101.068 78.1061C100.958 78.2255 100.865 78.3503 100.793 78.4806C100.722 78.6108 100.683 78.7574 100.683 78.9039C100.683 79.0721 100.738 79.2295 100.848 79.3652C100.958 79.4955 101.123 79.6149 101.338 79.7071C101.547 79.7994 101.816 79.87 102.135 79.9188C102.449 79.9677 102.823 79.9948 103.246 79.9948C103.719 79.9948 104.148 79.9514 104.522 79.8591C104.896 79.7668 105.221 79.6366 105.485 79.4629C105.749 79.2947 105.952 79.083 106.095 78.8388C106.238 78.5945 106.31 78.3177 106.31 78.0192C106.31 77.851 106.282 77.6936 106.233 77.5579C106.178 77.4168 106.09 77.2974 105.963 77.1943C105.842 77.0911 105.672 77.0097 105.463 76.95C105.259 76.8903 105.001 76.8578 104.698 76.8415L102.823 76.7601C102.625 76.7492 102.476 76.7167 102.372 76.6624C102.278 76.6135 102.234 76.5538 102.234 76.4724C102.234 76.3802 102.262 76.2825 102.322 76.1902C102.377 76.1034 102.449 76.022 102.531 75.9514C102.63 75.9785 102.74 76.0057 102.861 76.022C102.999 76.0437 103.136 76.0491 103.263 76.0491C103.615 76.0491 103.939 76.0057 104.231 75.9243C104.522 75.8374 104.781 75.718 104.99 75.5606C105.204 75.4032 105.369 75.2133 105.49 74.9908C105.611 74.7682 105.672 74.524 105.672 74.2526C105.672 74.079 105.639 73.9053 105.578 73.7262C105.529 73.5851 105.468 73.4602 105.397 73.3463H106.31V72.8144H104.825C104.759 72.7547 104.682 72.7113 104.588 72.6678ZM101.794 78.2146C101.811 78.1441 101.844 78.0681 101.877 77.9975C101.915 77.927 101.959 77.8564 102.014 77.7913C102.064 77.7316 102.119 77.6773 102.185 77.6285C102.256 77.6393 102.366 77.6502 102.509 77.6665C102.674 77.6827 102.861 77.699 103.076 77.7153C103.29 77.7316 103.521 77.7424 103.774 77.7533C104.016 77.7641 104.269 77.7696 104.517 77.7696C104.709 77.7696 104.885 77.7804 105.034 77.8076C105.182 77.8347 105.314 77.8727 105.413 77.9215C105.512 77.9704 105.589 78.0301 105.644 78.1061C105.694 78.1766 105.721 78.2635 105.721 78.3612C105.721 78.4534 105.677 78.5511 105.589 78.6434C105.496 78.7411 105.358 78.8333 105.182 78.9202C105.001 79.007 104.775 79.0721 104.517 79.1264C104.258 79.1753 103.956 79.2024 103.62 79.2024C103.307 79.2024 103.032 79.1807 102.795 79.1373C102.559 79.0939 102.361 79.0287 102.212 78.9582C102.064 78.8822 101.948 78.8008 101.877 78.7031C101.805 78.6108 101.772 78.5186 101.772 78.4209C101.772 78.3557 101.772 78.2852 101.794 78.2146ZM102.828 72.9175C102.944 72.8524 103.081 72.8198 103.241 72.8198C103.4 72.8198 103.56 72.8632 103.703 72.9446C103.851 73.026 103.983 73.1454 104.093 73.292C104.203 73.4385 104.297 73.6176 104.363 73.8239C104.429 74.0301 104.462 74.2526 104.462 74.4914C104.462 74.6543 104.434 74.8117 104.374 74.9528C104.319 75.0939 104.242 75.2187 104.143 75.3272C104.049 75.4304 103.934 75.5172 103.813 75.5769C103.538 75.7072 103.224 75.6909 102.982 75.5498C102.85 75.4738 102.729 75.3652 102.636 75.2241C102.537 75.083 102.46 74.9202 102.405 74.7302C102.35 74.5403 102.322 74.334 102.322 74.1115C102.322 73.927 102.339 73.7533 102.377 73.5905C102.416 73.4331 102.471 73.292 102.548 73.178C102.619 73.0695 102.713 72.9826 102.828 72.9175Z" fill="#A40000"/>
<path d="M114.213 71.0547H113.316L109.923 73.8715V71.0547H108.702V77.6652H109.923V74.4414L113.492 77.6544L113.509 77.6652H115.087L110.852 73.8498L114.213 71.0547Z" fill="#A40000"/>
<path d="M119.894 73.1702C119.652 72.9422 119.36 72.7631 119.03 72.6329C118.7 72.5026 118.332 72.4375 117.941 72.4375C117.551 72.4375 117.177 72.5081 116.841 72.6492C116.506 72.7903 116.214 72.9857 115.972 73.2353C115.73 73.4796 115.538 73.7726 115.401 74.1037C115.263 74.4348 115.197 74.793 115.197 75.1675C115.197 75.542 115.263 75.8676 115.401 76.1824C115.538 76.4972 115.73 76.774 115.972 77.0074C116.214 77.2407 116.506 77.4307 116.841 77.5664C117.177 77.7021 117.545 77.7726 117.941 77.7726C118.337 77.7726 118.7 77.6966 119.036 77.5501C119.366 77.4035 119.657 77.1973 119.899 76.9422C120.141 76.6871 120.334 76.3886 120.471 76.0467C120.609 75.7102 120.675 75.3411 120.675 74.9558C120.675 74.603 120.603 74.2719 120.471 73.968C120.328 73.6695 120.136 73.3981 119.894 73.1702ZM118.645 77.1485C118.491 77.2407 118.315 77.2896 118.128 77.2896C117.864 77.2896 117.622 77.2244 117.419 77.0888C117.21 76.9531 117.028 76.7685 116.885 76.5406C116.737 76.3072 116.627 76.0359 116.55 75.7211C116.473 75.4063 116.434 75.0643 116.434 74.7061C116.434 74.4619 116.473 74.2285 116.539 74.0114C116.61 73.7943 116.704 73.6044 116.825 73.4416C116.94 73.2842 117.078 73.1539 117.226 73.0616C117.375 72.9694 117.529 72.926 117.688 72.926C118.002 72.926 118.277 72.9911 118.491 73.1213C118.711 73.2516 118.893 73.4307 119.03 73.6587C119.168 73.8866 119.272 74.158 119.333 74.4673C119.393 74.7821 119.426 75.1186 119.426 75.4768C119.426 75.7211 119.393 75.9599 119.327 76.177C119.261 76.3941 119.173 76.5894 119.058 76.7577C118.942 76.9205 118.805 77.0508 118.645 77.1485Z" fill="#A40000"/>
<path d="M125.718 72.9066C125.597 72.7655 125.454 72.6516 125.295 72.5701C125.135 72.4887 124.959 72.4453 124.767 72.4453C124.42 72.4453 124.074 72.5322 123.733 72.7058C123.43 72.8578 123.139 73.0803 122.858 73.3734V72.4453H122.512L121.731 72.7438V77.6719H122.858V73.927C122.957 73.8293 123.073 73.737 123.188 73.6556C123.309 73.5688 123.43 73.4928 123.551 73.4331C123.672 73.3734 123.793 73.3245 123.909 73.2866C124.151 73.216 124.36 73.216 124.53 73.2974C124.618 73.3354 124.701 73.3951 124.767 73.4765C124.833 73.5579 124.888 73.6556 124.926 73.775C124.965 73.8944 124.981 74.0355 124.981 74.1984V77.6773H126.103V74.0247C126.103 73.813 126.07 73.6068 125.999 73.4168C125.938 73.216 125.839 73.0478 125.718 72.9066Z" fill="#A40000"/>
<path d="M132.427 72.802H130.942C130.882 72.7531 130.805 72.7097 130.711 72.6717C130.607 72.6283 130.491 72.5903 130.365 72.5578C130.233 72.5252 130.09 72.4981 129.947 72.4763C129.798 72.4546 129.644 72.4492 129.49 72.4492C129.171 72.4492 128.869 72.4981 128.594 72.5958C128.319 72.6934 128.071 72.8237 127.868 72.992C127.659 73.1602 127.494 73.361 127.378 73.5835C127.263 73.8115 127.203 74.0503 127.203 74.3054C127.203 74.6473 127.301 74.9567 127.505 75.2226C127.681 75.456 127.917 75.6405 128.209 75.7871C128.11 75.8305 128.011 75.8847 127.923 75.9444C127.796 76.0259 127.686 76.1235 127.587 76.2267C127.488 76.3298 127.411 76.4383 127.357 76.5523C127.296 76.6717 127.269 76.7857 127.269 76.8942C127.269 76.9702 127.285 77.0462 127.323 77.1168C127.362 77.1819 127.411 77.247 127.472 77.3013C127.532 77.3556 127.609 77.4044 127.697 77.4478C127.752 77.475 127.807 77.5021 127.868 77.5238C127.763 77.6052 127.659 77.6866 127.554 77.768C127.422 77.8766 127.296 77.9906 127.186 78.11C127.076 78.2294 126.983 78.3542 126.911 78.4845C126.84 78.6147 126.801 78.7558 126.801 78.9078C126.801 79.076 126.856 79.2334 126.966 79.3691C127.076 79.4994 127.241 79.6188 127.455 79.711C127.664 79.8033 127.934 79.8739 128.253 79.9227C128.566 79.9716 128.94 79.9987 129.364 79.9987C129.837 79.9987 130.266 79.9553 130.64 79.863C131.014 79.7707 131.338 79.6405 131.602 79.4668C131.866 79.2986 132.07 79.0869 132.213 78.8427C132.356 78.5984 132.427 78.3216 132.427 78.0231C132.427 77.8549 132.4 77.6975 132.35 77.5618C132.295 77.4207 132.207 77.3013 132.081 77.1982C131.96 77.0951 131.789 77.0136 131.58 76.9539C131.377 76.8942 131.118 76.8617 130.816 76.8454L128.94 76.764C128.742 76.7531 128.594 76.7206 128.489 76.6663C128.396 76.6174 128.352 76.5577 128.352 76.4763C128.352 76.3841 128.385 76.2864 128.44 76.1941C128.5 76.1018 128.566 76.0259 128.649 75.9553C128.742 75.9824 128.858 76.0096 128.979 76.0259C129.116 76.0476 129.254 76.053 129.38 76.053C129.732 76.053 130.057 76.0096 130.348 75.9282C130.64 75.8413 130.898 75.7219 131.107 75.5645C131.322 75.4071 131.487 75.2172 131.608 74.9947C131.729 74.7721 131.789 74.5279 131.789 74.2565C131.789 74.0829 131.756 73.9092 131.696 73.7301C131.646 73.589 131.586 73.4641 131.514 73.3502H132.427V72.802ZM127.917 78.2131C127.934 78.1425 127.967 78.0666 128 77.996C128.038 77.9254 128.082 77.8549 128.137 77.7898C128.187 77.7301 128.242 77.6758 128.308 77.6269C128.379 77.6378 128.489 77.6486 128.632 77.6649C128.797 77.6812 128.984 77.6975 129.199 77.7138C129.413 77.7301 129.644 77.7409 129.897 77.7518C130.139 77.7626 130.392 77.768 130.64 77.768C130.832 77.768 131.008 77.7789 131.157 77.806C131.305 77.8332 131.437 77.8712 131.536 77.92C131.635 77.9689 131.712 78.0286 131.767 78.1045C131.817 78.1751 131.844 78.2619 131.844 78.3596C131.844 78.4519 131.8 78.5496 131.712 78.6418C131.619 78.7395 131.481 78.8318 131.305 78.9187C131.124 79.0055 130.898 79.0706 130.64 79.1249C130.381 79.1737 130.079 79.2009 129.743 79.2009C129.43 79.2009 129.155 79.1792 128.918 79.1357C128.682 79.0923 128.484 79.0272 128.335 78.9566C128.187 78.8807 128.071 78.7992 128 78.7016C127.928 78.6093 127.895 78.517 127.895 78.4193C127.89 78.3542 127.895 78.2836 127.917 78.2131ZM128.951 72.916C129.067 72.8508 129.204 72.8183 129.364 72.8183C129.523 72.8183 129.683 72.8617 129.826 72.9431C129.974 73.0245 130.106 73.1439 130.216 73.2905C130.326 73.437 130.42 73.6161 130.486 73.8223C130.552 74.0286 130.585 74.2511 130.585 74.4899C130.585 74.6527 130.557 74.8101 130.497 74.9512C130.442 75.0924 130.365 75.2172 130.266 75.3257C130.172 75.4288 130.057 75.5157 129.936 75.5754C129.661 75.7056 129.347 75.6894 129.105 75.5482C128.973 75.4723 128.852 75.3637 128.759 75.2226C128.66 75.0815 128.583 74.9187 128.528 74.7287C128.473 74.5388 128.445 74.3325 128.445 74.11C128.445 73.9255 128.462 73.7518 128.5 73.589C128.539 73.4316 128.594 73.2905 128.671 73.1765C128.742 73.0679 128.836 72.9811 128.951 72.916Z" fill="#A40000"/>
<defs>
<radialGradient id="paint0_radial_861_1962" cx="0" cy="0" r="1" gradientUnits="userSpaceOnUse" gradientTransform="translate(74.0748 39.0278) scale(109.461 108.021)">
<stop stop-color="#E07433"/>
<stop offset="0.09" stop-color="#DF6E31"/>
<stop offset="0.22" stop-color="#DB5D2C"/>
<stop offset="0.26" stop-color="#DA562B"/>
<stop offset="0.37" stop-color="#D33936"/>
<stop offset="0.46" stop-color="#CE1E3B"/>
<stop offset="0.53" stop-color="#CD103C"/>
<stop offset="0.59" stop-color="#C21744"/>
<stop offset="0.74" stop-color="#A72156"/>
</radialGradient>
</defs>
</svg>
