<svg width="127" height="71" viewBox="0 0 127 71" fill="none" xmlns="http://www.w3.org/2000/svg">
<path d="M126.491 4.19148C126.069 2.77533 125.424 1.64338 123.867 1.14725C122.615 0.74745 121.407 0.410272 120.083 0.0923617C119.637 -0.0232421 119.152 -0.0328757 118.662 0.0779112L54.6552 16.5804C53.1807 16.9609 51.2211 18.2566 50.3043 19.4608L38.0084 35.5731C37.0868 36.7773 37.5524 38.0249 39.0415 38.3476L52.9381 41.334C52.4143 40.9872 51.9293 40.5922 51.5024 40.1443C50.6633 39.2628 50.0376 38.2079 49.6253 36.9844C49.213 35.7561 49.0723 34.4074 49.1984 32.9287C49.3294 31.4162 49.7174 30.0482 50.3577 28.8199C50.998 27.5916 51.8225 26.5464 52.8314 25.6842C53.8403 24.8219 54.9996 24.1572 56.2947 23.6948C57.5946 23.2324 58.9721 23.0012 60.4273 23.0012C61.7757 23.0012 63.0805 23.2372 64.3416 23.7093C65.6027 24.1813 66.5971 24.8701 67.3295 25.7757L63.9293 28.8681C63.551 28.2804 63.0223 27.8469 62.3432 27.5627C61.669 27.2785 60.9608 27.134 60.2236 27.134C59.4135 27.134 58.6617 27.2785 57.9584 27.5723C57.2599 27.8662 56.6439 28.2708 56.1104 28.7862C55.5768 29.3016 55.15 29.9085 54.8153 30.6118C54.4855 31.315 54.2817 32.0857 54.209 32.919C54.1362 33.7716 54.1993 34.5567 54.4078 35.2648C54.6164 35.9777 54.9317 36.5846 55.3634 37.0952C55.7951 37.601 56.3335 37.996 56.9737 38.2802C57.614 38.5643 58.327 38.7088 59.1225 38.7088C60.0392 38.7088 60.8541 38.5306 61.572 38.1742C62.285 37.8177 62.8768 37.3553 63.3376 36.7869L66.2818 39.7734C65.3505 40.7319 64.2446 41.493 62.9544 42.0565C62.0279 42.4612 61.0142 42.7116 59.918 42.8272L83.2439 47.8367L83.9084 44.8214C84.117 44.8937 84.3498 44.9515 84.6069 44.9948C84.864 45.0382 85.1017 45.0622 85.3151 45.0622C85.999 45.0622 86.5083 44.9081 86.8381 44.595C87.168 44.2819 87.4687 43.8436 87.7355 43.2752L88.2642 42.1818L83.8066 29.1089H88.7153L90.9562 37.6443H91.0386L94.4582 29.1089H99.1486L91.7856 44.3975C91.4558 45.0911 91.1017 45.7077 90.7185 46.252C90.3402 46.7963 89.9036 47.2587 89.4089 47.6392C88.9141 48.0198 88.3515 48.3088 87.7161 48.5063C87.5075 48.5689 87.2844 48.6171 87.0515 48.6604L108.617 53.2894C110.106 53.6073 111.634 52.6728 112.012 51.2085C111.998 51.2711 111.973 51.3337 111.954 51.3915L126.37 11.9466C126.68 10.9302 127 10.3715 127 8.61333C127.01 6.81665 126.491 4.19148 126.491 4.19148ZM71.564 42.3985H67.1403L68.3093 29.1137H72.7329L71.564 42.3985ZM73.1452 25.819C72.9852 26.1128 72.7814 26.3681 72.5389 26.5801C72.2964 26.792 72.0102 26.9606 71.6852 27.0858C71.3603 27.2111 71.0256 27.2737 70.686 27.2737C69.9682 27.2737 69.3861 27.0377 68.9399 26.5656C68.4985 26.0936 68.3045 25.53 68.3627 24.8701C68.3918 24.5522 68.4791 24.2439 68.6343 23.9501C68.7847 23.6563 68.9884 23.401 69.2406 23.189C69.4928 22.9771 69.779 22.8037 70.0943 22.6688C70.4096 22.534 70.7491 22.4665 71.108 22.4665C71.4476 22.4665 71.7725 22.5291 72.0733 22.6544C72.3789 22.7796 72.6311 22.9482 72.8396 23.1601C73.0434 23.3721 73.2034 23.6274 73.3101 23.9212C73.4169 24.215 73.4605 24.5281 73.4266 24.8701C73.4023 25.2121 73.3053 25.5252 73.1452 25.819ZM83.1712 32.3699H80.0135L79.5673 37.4565C79.5139 38.0827 79.5915 38.5499 79.8098 38.863C80.0232 39.1761 80.4452 39.3302 81.0758 39.3302C81.2892 39.3302 81.522 39.311 81.7694 39.2772C82.0168 39.2435 82.2205 39.1905 82.3902 39.1183L82.1623 42.3166C81.847 42.4226 81.4541 42.519 80.9787 42.596C80.5034 42.6779 80.0329 42.7164 79.5673 42.7164C78.6699 42.7164 77.9229 42.6057 77.3312 42.3841C76.7394 42.1625 76.2786 41.8398 75.944 41.4207C75.6141 41.0017 75.391 40.5007 75.2794 39.9227C75.1679 39.3447 75.1436 38.6992 75.2067 37.9815L75.7014 32.3651H73.543L73.8292 29.1089H75.9585L76.2641 25.6167H80.6053L80.2997 29.1089H83.4573L83.1712 32.3699ZM110.528 42.3456C109.48 42.7213 108.335 42.9043 107.094 42.9043C105.852 42.9043 104.717 42.7164 103.747 42.3456C102.772 41.9747 101.967 41.4544 101.322 40.7849C100.681 40.1202 100.211 39.3206 99.915 38.3861C99.6191 37.4517 99.5221 36.416 99.624 35.2793L100.662 23.5118H105.246L104.242 34.9036C104.198 35.419 104.222 35.9103 104.314 36.3727C104.407 36.8351 104.581 37.2494 104.824 37.6106C105.071 37.9767 105.415 38.2657 105.852 38.4776C106.289 38.6896 106.837 38.7956 107.482 38.7956C108.127 38.7956 108.69 38.6896 109.17 38.4776C109.645 38.2657 110.043 37.9767 110.363 37.6106C110.683 37.2494 110.926 36.8351 111.091 36.3727C111.255 35.9103 111.362 35.4238 111.411 34.9036L112.415 23.5118H117.027L115.989 35.2793C115.888 36.416 115.606 37.4517 115.136 38.3861C114.665 39.3206 114.044 40.1202 113.268 40.7849C112.492 41.4544 111.58 41.9747 110.528 42.3456Z" fill="white"/>
<path d="M5.46649 53.7148H8.74541V53.1512H4.82137V52.2456C5.89818 52.1493 6.87797 52.0144 7.80442 51.8266L7.93053 51.8025L7.61525 51.2148L7.54249 51.2293C5.45679 51.6532 3.33713 51.8651 1.23202 51.8651H0.960394L1.13016 52.4672H1.20777C2.25547 52.448 3.26437 52.395 4.21021 52.3083V53.1608H0.295879V53.7244H3.56025C3.21102 54.0905 2.75992 54.4469 2.21667 54.7889C1.82378 55.0442 1.46969 55.2465 1.12531 55.4103C0.790628 55.5789 0.446244 55.7234 0.10186 55.8438L0 55.8775L0.266776 56.4266L0.349234 56.3977C1.10106 56.1232 1.89169 55.7089 2.69686 55.1695C3.02185 54.9479 3.33228 54.7022 3.6136 54.4373C3.84643 54.2302 4.0453 54.0375 4.21506 53.8448V55.55H4.82137V53.8448C5.6314 54.7504 6.87797 55.5837 8.53199 56.3207L8.59504 56.3496L9.08009 55.8245L8.94913 55.7716C7.40668 55.1406 6.23286 54.4518 5.46649 53.7148Z" fill="white"/>
<path d="M1.86743 60.063H2.47374V59.4368H6.6112V60.063H7.21751V55.6797H1.86743V60.063ZM2.47374 57.2355V56.2433H6.6112V57.2355H2.47374ZM6.6112 57.7991V58.8684H2.47374V57.7991H6.6112Z" fill="white"/>
<path d="M13.4504 53.2493L13.5281 53.3264L13.9064 52.8254L13.8433 52.7676C13.3874 52.3437 12.8926 51.9632 12.3348 51.6068L12.2572 51.5586L11.9128 52.0162L12.0002 52.074C12.4803 52.3919 12.9654 52.7869 13.4504 53.2493Z" fill="white"/>
<path d="M13.6687 56.217L13.1643 55.875L13.1255 56.0051C12.752 57.2719 12.2233 58.4472 11.5588 59.5069L11.5103 59.584L12.0584 59.9645L12.1117 59.8681C12.4609 59.2323 12.752 58.6495 12.9945 58.0811C13.2516 57.4742 13.4698 56.8673 13.6493 56.2844L13.6687 56.217Z" fill="white"/>
<path d="M12.3154 54.734C12.587 54.9749 12.8441 55.2302 13.0381 55.4325L13.1157 55.5144L13.4941 55.0279L13.4359 54.9701C12.9557 54.4739 12.4512 54.0452 11.9274 53.6936L11.8498 53.6406L11.5054 54.0838L11.583 54.1416C11.8304 54.3294 12.0729 54.5317 12.3154 54.734Z" fill="white"/>
<path d="M18.393 54.8728H20.3768V54.3092H18.2426V53.1242H19.8918V52.5607H18.2426V51.1445H17.6363V52.5607H16.0793V51.1445H15.4779V52.5607H14.0906V53.1242H15.4779V54.3092H13.5377V54.8728H15.4003C15.2547 55.1473 15.0704 55.4411 14.8473 55.7398C14.5078 56.1685 14.0906 56.5635 13.6056 56.9199L13.5134 56.9873L13.9645 57.4209L14.0324 57.3727C14.3186 57.1511 14.5514 56.9536 14.76 56.7465C14.9152 56.5972 15.0704 56.4382 15.2159 56.26V58.7792C15.2159 58.9719 15.2353 59.1164 15.279 59.2464C15.3178 59.3669 15.3906 59.4632 15.4973 59.521C15.5458 59.5884 15.6961 59.6462 16.2685 59.6848C16.7778 59.7137 17.4811 59.7329 18.3105 59.7329C18.7422 59.7329 19.0624 59.704 19.2952 59.6414C19.5329 59.5788 19.6832 59.4632 19.7172 59.3139C19.7366 59.2705 19.756 59.1838 19.7899 58.9382V58.9093C19.8142 58.7118 19.8433 58.4228 19.8676 58.047V57.9844L19.2321 57.6761L19.2224 57.8207C19.1836 58.548 19.1448 58.8996 19.14 58.9285C19.0866 59.0249 18.9023 59.1356 18.3154 59.1356C16.3025 59.1356 15.9581 59.0538 15.9047 59.02C15.8756 58.9911 15.8562 58.9671 15.8417 58.9189C15.832 58.8948 15.8223 58.8466 15.832 58.7551V57.8062H18.5967V55.9854C19.009 56.3949 19.4989 56.7754 20.0519 57.127L20.1198 57.1704L20.5903 56.6502L20.4836 56.5924C19.562 56.0673 18.8635 55.4941 18.393 54.8728ZM17.6363 53.1242V54.3092H16.0793V53.1242H17.6363ZM15.8126 57.233V56.2793H17.971V57.233H15.8126ZM15.6137 55.7109C15.7834 55.446 15.9435 55.1666 16.0793 54.8679H17.6848C17.8692 55.1569 18.0826 55.4411 18.33 55.7109H15.6137Z" fill="white"/>
<path d="M31.3875 58.0341C31.3536 58.3713 31.3245 58.6314 31.2954 58.8241C31.2566 59.0312 31.2275 59.1806 31.2129 59.2432C31.1984 59.2769 31.1596 59.354 31.1111 59.354C31.048 59.354 30.9753 59.301 30.8928 59.1902C30.7909 59.0601 30.6794 58.8626 30.5581 58.5929C30.4757 58.4484 30.4078 58.2943 30.3544 58.1305C30.2865 57.9619 30.238 57.7981 30.1943 57.6247H30.1992C30.66 56.9696 31.0529 55.881 31.3633 54.383L31.3827 54.2915L30.7424 54.1277L30.723 54.2289C30.6115 54.8021 30.4805 55.3078 30.3253 55.7751C30.2089 56.1315 30.0828 56.4494 29.9567 56.7192C29.8888 56.4446 29.8354 56.1604 29.7917 55.8473C29.7287 55.5198 29.6802 55.1585 29.6414 54.7057C29.6074 54.3204 29.5783 53.9206 29.5589 53.4919H31.8144V52.9283H30.8928L31.3584 52.6104L31.3196 52.5333C31.2032 52.3118 31.0674 52.095 30.9316 51.8879C30.8103 51.7097 30.6697 51.5218 30.4854 51.2906L30.4272 51.2232L29.9373 51.5603L29.9955 51.6422C30.1313 51.8253 30.2816 52.0372 30.4223 52.254C30.5581 52.4659 30.6745 52.6923 30.7715 52.8801L30.7958 52.9283H29.5347C29.5056 52.4322 29.491 51.8686 29.5007 51.2135V51.1172H28.8556V51.2135C28.8459 51.859 28.8556 52.4225 28.8896 52.9331H26.1296V55.6884C26.1199 56.0881 26.0957 56.4735 26.0472 56.8348L25.9647 56.3242L25.8435 56.3964C25.5573 56.5602 25.242 56.7143 24.8976 56.8492V54.3878H25.989V53.8242H24.8976V51.411H24.2913V53.8242H23.132V54.3878H24.2913V57.0852C24.1167 57.1575 23.9324 57.2249 23.7335 57.2875C23.5346 57.355 23.297 57.4369 23.0641 57.4947L22.9429 57.5236L23.2582 58.1112L23.3358 58.0871C23.6801 57.986 24.0779 57.8367 24.5775 57.6199C24.9704 57.4609 25.4069 57.2586 25.9987 56.9696L26.0278 56.9552C26.0278 56.9552 26.0229 56.9841 26.0229 56.9985C25.955 57.3887 25.8629 57.7259 25.7416 58.0004C25.6106 58.2943 25.4554 58.564 25.276 58.8C25.0916 59.036 24.8928 59.248 24.6551 59.4503L24.5872 59.5129L24.9752 59.9946L25.0528 59.932C25.3002 59.7249 25.5233 59.4985 25.7367 59.2335C25.9453 58.959 26.1296 58.67 26.2751 58.3617C26.571 57.7162 26.7262 56.8396 26.7311 55.7462V55.3126H28.0601C28.0359 55.7847 28.0068 56.3001 27.968 56.6903C27.9292 57.0804 27.8904 57.3502 27.8564 57.485C27.8127 57.6103 27.7351 57.7596 27.5848 57.7596C27.5217 57.7596 27.4102 57.7596 27.2501 57.7211C27.0997 57.6922 26.9445 57.644 26.7699 57.5765L26.6341 57.5236V58.1787L26.6971 58.2027C26.8863 58.2702 27.0803 58.3232 27.2598 58.3569C27.4102 58.3954 27.5605 58.4099 27.6575 58.3954C27.8127 58.4099 27.9583 58.3569 28.0601 58.2509C28.1668 58.169 28.259 58.0293 28.3512 57.827C28.4191 57.6488 28.4773 57.3261 28.5403 56.7866C28.584 56.3386 28.6228 55.7365 28.6664 54.8454V54.7443H26.7262V53.4919H28.909C28.9672 54.4745 29.0739 55.3753 29.2194 56.1556C29.263 56.435 29.3018 56.6469 29.3552 56.854C29.3989 57.066 29.4522 57.2683 29.5153 57.4465C29.0496 58.0968 28.4288 58.6892 27.6139 59.2528L27.5314 59.3106L27.9098 59.7923L27.9874 59.7441C28.7004 59.2769 29.2776 58.7759 29.7529 58.2027C29.8597 58.5206 29.9906 58.8048 30.1361 59.0457C30.4854 59.6526 30.8006 59.9512 31.1111 59.9512C31.3148 59.9512 31.4943 59.8694 31.6349 59.7008C31.698 59.5852 31.7562 59.4166 31.8144 59.1854C31.8726 58.959 31.9211 58.67 31.9599 58.3087V58.2557L31.4021 57.8078L31.3875 58.0341Z" fill="white"/>
<path d="M39.546 52.3888L39.5023 52.3117C39.3762 52.095 39.2258 51.8782 39.0464 51.647C38.896 51.4543 38.7311 51.2568 38.5225 51.0353L38.4643 50.9727L37.9308 51.3387L38.0035 51.4206C38.3188 51.7674 38.5856 52.1239 38.799 52.4851H34.4287V53.1258H38.6098V54.6431H35.4716V59.1035H36.1555V55.2837H38.6098V60.062H39.2937V55.2837H41.8645V58.0775C41.8645 58.2701 41.8208 58.3424 41.7966 58.3617C41.782 58.3713 41.7578 58.3906 41.6996 58.3858C41.3261 58.4002 40.8847 58.299 40.3899 58.0967L40.2444 58.0389L40.3026 58.7037L40.356 58.7277C40.5743 58.8144 40.8071 58.8819 41.0593 58.9252C41.2679 58.9686 41.4862 58.9927 41.6996 58.9927C42.2525 58.9927 42.5436 58.7037 42.5436 58.1545V54.6479H39.2937V53.1306H43.4748V52.49H39.4101L39.546 52.3888Z" fill="white"/>
<path d="M53.5831 58.4381C53.1757 58.072 52.8361 57.6867 52.5306 57.2435C52.2056 56.8293 51.9339 56.3669 51.7205 55.8756C51.5168 55.4131 51.3664 54.9363 51.2597 54.4257H54.6163V53.7465H50.44C50.5322 53.0577 50.6146 52.2389 50.6922 51.2466L50.7019 51.1406H50.018V51.2321C49.9889 51.5549 49.9598 51.8583 49.9307 52.1522C49.9162 52.3063 49.9016 52.4604 49.887 52.6098C49.8482 52.9807 49.7997 53.3756 49.7464 53.7513H46.2783V54.4305H49.6348C49.533 54.9315 49.4117 55.4035 49.271 55.8322C49.1207 56.2802 48.9558 56.6414 48.7908 56.916C48.1748 57.9179 47.2096 58.7801 45.9194 59.4737L45.7981 59.5364L46.3219 60.018L46.385 59.9843C47.1077 59.5893 47.7043 59.1847 48.2136 58.7368C48.7229 58.2792 49.1401 57.7734 49.4457 57.2435C49.8046 56.6318 50.1053 55.6829 50.3333 54.4305H50.537C50.6583 55.0326 50.8183 55.5721 51.0366 56.0731C51.2888 56.6511 51.5702 57.1472 51.8951 57.5807C52.2347 58.0961 52.5985 58.5393 53.0108 58.9391C53.4036 59.3196 53.8547 59.676 54.3931 60.0229L54.4659 60.071L54.98 59.4737L54.883 59.4159C54.3883 59.1125 53.9517 58.7897 53.5831 58.4381Z" fill="white"/>
<path d="M58.4435 55.6105H65.4233V56.569H66.0199V55.0469H65.4039L65.5834 51.5884H63.2891V52.152H64.9577L64.9237 52.7397H63.2552V53.3129H64.8946L64.8655 53.862H63.1V54.4256H64.8364L64.7976 55.0469H62.9059L63.2309 54.6857L63.1533 54.623C63.0369 54.5267 62.9156 54.4256 62.7992 54.31C62.7119 54.2377 62.6198 54.1606 62.5276 54.0787C62.7022 53.9102 62.872 53.7078 63.0563 53.4526L63.1 53.3899L62.8962 53.1635L63.2309 52.7975L63.1533 52.7349C63.0417 52.6433 62.935 52.547 62.8235 52.4458C62.741 52.3832 62.6634 52.3158 62.581 52.2435C62.6731 52.152 62.7701 52.0509 62.8671 51.9401C62.9932 51.8052 63.1048 51.6607 63.2067 51.5258L63.2552 51.4632L62.8914 51.0586L62.8186 51.1549C62.6343 51.4102 62.416 51.6559 62.1541 51.9015C61.9019 51.7233 61.6254 51.5355 61.2665 51.3091L61.1937 51.2609L60.8493 51.6655L60.9415 51.7281C61.1307 51.8534 61.3198 51.9834 61.5187 52.1183L61.7224 52.258C61.5818 52.3591 61.4605 52.441 61.3392 52.5085C61.1743 52.6192 60.9949 52.7108 60.8105 52.783H60.8008V52.7397H59.011V52.4073C59.2778 52.364 59.5591 52.2917 59.8647 52.2002C60.1557 52.1087 60.4467 51.9931 60.7475 51.8534L60.8445 51.81L60.5147 51.2753L60.437 51.3091C59.8065 51.5836 59.1517 51.7715 58.4823 51.863L58.395 51.8726L58.4726 55.0517H57.842V56.5739H58.4484V55.6105H58.4435ZM62.1541 52.6144C62.319 52.7686 62.4839 52.9275 62.6586 53.0913C62.4888 53.3321 62.2996 53.5441 62.0911 53.7416C61.9746 53.6645 61.8534 53.5826 61.737 53.5007C61.5915 53.3996 61.4508 53.3032 61.3004 53.2069L61.2568 53.178C61.3877 53.1106 61.5187 53.0383 61.6594 52.9516C61.8485 52.8408 62.0086 52.73 62.1541 52.6144ZM62.0959 54.4496C62.1929 54.5412 62.2899 54.6279 62.3869 54.7146C62.4985 54.8253 62.6149 54.941 62.7362 55.0517H61.1064C61.4459 54.8976 61.7709 54.7001 62.0959 54.4496ZM60.796 52.9853L60.9949 53.3032L61.0725 53.2647C61.1113 53.2454 61.1452 53.231 61.184 53.2117L60.8881 53.5682L61.1646 53.756C61.3247 53.8668 61.4896 53.9776 61.6545 54.0932C61.3974 54.2859 61.0967 54.4593 60.762 54.6086L60.6602 54.6568L60.9124 55.0469H59.0304L59.0207 54.387H60.859V53.8235H59.011V53.3129H60.796V52.9853Z" fill="white"/>
<path d="M66.3254 57.6837H62.1588C62.1588 57.6837 62.1588 57.6692 62.1588 57.6644V57.65C62.6342 57.5103 63.061 57.3561 63.4588 57.1779C63.9147 56.9852 64.3125 56.7878 64.6762 56.5614L64.7248 56.5325V56.0508H59.1807V56.6143H63.4345C62.9495 56.8167 62.4353 56.9901 61.8969 57.1297C61.8872 57.1201 61.8824 57.1057 61.8727 57.0864L61.8581 57.0623C61.8339 57.0286 61.8096 56.9997 61.7951 56.9612L61.7563 56.8648L61.2276 57.1057L61.2858 57.1972C61.3149 57.2405 61.3391 57.2887 61.3682 57.3369C61.3973 57.3899 61.4264 57.4428 61.4555 57.4814C61.4895 57.5488 61.5186 57.6114 61.5477 57.6741H57.5315V58.2376H61.7175L61.7611 58.5411C61.7805 58.676 61.7902 58.8156 61.7999 58.9505C61.7902 59.0661 61.7805 59.1769 61.766 59.2492C61.7514 59.3118 61.732 59.3359 61.732 59.3359C61.7029 59.3503 61.6689 59.3599 61.635 59.3648C61.5913 59.3744 61.5574 59.3792 61.5234 59.3792C61.2324 59.3792 60.9123 59.307 60.5436 59.1576L60.3981 59.0998L60.4563 59.7694L60.5194 59.7886C60.7037 59.8464 60.888 59.8946 61.0772 59.9331C61.2858 59.9669 61.4652 59.9813 61.6301 59.9813C61.8436 59.9813 62.0279 59.9283 62.1734 59.8127C62.3335 59.6778 62.4062 59.3985 62.4062 58.9457V58.8879C62.3917 58.7867 62.382 58.6711 62.3674 58.5507L62.3577 58.4977C62.348 58.4158 62.3335 58.3243 62.3189 58.2328H66.3303V57.6837H66.3254Z" fill="white"/>
<path d="M5.43754 67.2465C5.35994 67.4054 5.25323 67.5644 5.12711 67.7185C5.001 67.8727 4.85549 68.0124 4.70027 68.1376C4.54506 68.258 4.37044 68.3592 4.18612 68.4362C4.0018 68.5133 3.81264 68.5518 3.61377 68.5518C3.27908 68.5518 2.96865 68.494 2.68247 68.3784C2.3963 68.2628 2.14892 68.0942 1.94035 67.8823C1.73178 67.6655 1.56687 67.4006 1.4456 67.0875C1.32434 66.7744 1.26614 66.418 1.26614 66.0182C1.26614 65.6184 1.32919 65.2571 1.45045 64.944C1.57172 64.6309 1.74148 64.3564 1.95005 64.1348C2.16347 63.9132 2.4157 63.7446 2.69703 63.6242C2.9832 63.5038 3.28878 63.446 3.61862 63.446C3.99695 63.446 4.33649 63.552 4.62752 63.7591C4.91854 63.971 5.19017 64.3082 5.42784 64.7658L5.4521 64.814L5.96625 64.4768L5.94199 64.4334C5.82073 64.236 5.67522 64.0481 5.50545 63.8651C5.33568 63.682 5.14167 63.5231 4.92339 63.3834C4.70512 63.2437 4.4626 63.1329 4.19582 63.051C3.92905 62.9691 3.63802 62.9258 3.32274 62.9258C3.00746 62.9258 2.68247 62.9643 2.3963 63.0366C2.10527 63.1136 1.83364 63.2196 1.59597 63.3545C1.35344 63.4893 1.13032 63.6531 0.936303 63.8458C0.742284 64.0385 0.577368 64.2456 0.441555 64.472C0.305742 64.6984 0.203882 64.9488 0.131125 65.2041C0.0583674 65.4642 0.0244141 65.734 0.0244141 66.0085C0.0244141 66.418 0.102022 66.813 0.257237 67.1839C0.412452 67.5499 0.635574 67.8775 0.916902 68.1569C1.20308 68.4314 1.54746 68.653 1.94035 68.8168C2.33809 68.9757 2.78433 69.0576 3.26938 69.0576C3.60406 69.0576 3.9145 69.0142 4.18612 68.9324C4.45775 68.8505 4.70997 68.7397 4.92824 68.6C5.14652 68.4603 5.34054 68.2965 5.50545 68.1183C5.67037 67.9401 5.81588 67.7474 5.93714 67.5499L5.9614 67.5066L5.4618 67.1887L5.43754 67.2465Z" fill="white"/>
<path d="M7.9304 62.3317C7.88189 62.2836 7.81884 62.2402 7.75093 62.2113C7.61512 62.1535 7.45505 62.1535 7.31924 62.2113C7.25133 62.2402 7.19312 62.2788 7.13977 62.3317C7.08641 62.3847 7.04761 62.4425 7.01851 62.51C6.98941 62.5774 6.97485 62.6497 6.97485 62.7267C6.97485 62.8038 6.98941 62.876 7.01851 62.9435C7.04761 63.0109 7.08641 63.0687 7.13977 63.1217C7.18827 63.1699 7.25133 63.2132 7.31924 63.2421C7.38714 63.271 7.4599 63.2855 7.53751 63.2855C7.61512 63.2855 7.68787 63.271 7.75578 63.2421C7.82369 63.2132 7.88189 63.1747 7.93525 63.1217C7.9886 63.0735 8.02741 63.0109 8.05651 62.9435C8.08561 62.876 8.10016 62.8038 8.10016 62.7267C8.10016 62.6497 8.08561 62.5774 8.05651 62.51C8.02256 62.4425 7.98375 62.3847 7.9304 62.3317Z" fill="white"/>
<path d="M7.04761 64.5666V68.9307H8.03225V64.2969H7.72667L7.04761 64.5666Z" fill="white"/>
<path d="M11.5199 68.1281C11.4617 68.1955 11.3938 68.2533 11.3162 68.3015C11.2435 68.3448 11.161 68.3689 11.0688 68.3689C11.0058 68.3689 10.9476 68.3593 10.8942 68.3352C10.8409 68.3111 10.7972 68.2822 10.7584 68.2437C10.7196 68.2051 10.6905 68.157 10.6663 68.1088C10.642 68.0558 10.6323 68.0028 10.6323 67.9402V64.8526H11.6315V64.3758H10.6323V62.8633H10.3364L9.65251 63.1282V64.3902L8.91039 64.5925L8.87158 64.6022V64.8574H9.65251V67.945C9.65251 68.104 9.67191 68.2485 9.70586 68.3786C9.74467 68.5086 9.79802 68.6242 9.87563 68.7205C9.95324 68.8169 10.0502 68.8939 10.1667 68.9469C10.2831 68.9999 10.4237 69.0288 10.5789 69.0288C10.8748 69.0288 11.1319 68.9662 11.3308 68.841C11.5345 68.7205 11.6994 68.552 11.8255 68.3352L11.8498 68.2918L11.549 68.0944L11.5199 68.1281Z" fill="white"/>
<path d="M14.7454 67.5291L13.0526 64.3789H11.9272L14.2458 68.6755L13.9547 69.321C13.9208 69.398 13.8771 69.4847 13.8238 69.5763C13.7753 69.663 13.7122 69.7497 13.6492 69.8267C13.5861 69.899 13.5134 69.9616 13.4357 70.0146C13.363 70.0628 13.2854 70.0868 13.1981 70.0868C13.1302 70.0868 13.0623 70.0869 13.0041 70.0676C12.9458 70.0483 12.8925 70.0387 12.844 70.0146C12.7955 69.9953 12.747 69.9712 12.7082 69.952C12.6645 69.9279 12.6257 69.9086 12.5869 69.8942L12.5433 69.8749L12.1504 70.7467L12.1358 70.7805L12.1649 70.8046C12.2377 70.8575 12.325 70.9057 12.4317 70.9394C12.5336 70.9731 12.6451 70.9876 12.7518 70.9876C12.8973 70.9876 13.0477 70.9635 13.2029 70.9105C13.3581 70.8575 13.5085 70.7757 13.6492 70.6697C13.7898 70.5637 13.9305 70.4288 14.0566 70.2651C14.1827 70.1013 14.2943 69.9086 14.3913 69.687L16.7098 64.3789H16.1229L14.7454 67.5291Z" fill="white"/>
<path d="M23.3549 66.8591C23.3549 67.0999 23.3161 67.3263 23.2337 67.5334C23.1512 67.7405 23.0348 67.9284 22.8844 68.0825C22.7341 68.2415 22.5498 68.3667 22.3363 68.4583C22.1229 68.5498 21.8755 68.5979 21.6088 68.5979C21.342 68.5979 21.0995 68.5498 20.8812 68.4583C20.6629 68.3667 20.4786 68.2415 20.3282 68.0825C20.1779 67.9236 20.0566 67.7405 19.9742 67.5334C19.8917 67.3215 19.848 67.0951 19.848 66.8591V63.0634H18.7712V66.8302C18.7712 67.1384 18.8246 67.4274 18.9362 67.6972C19.0429 67.9669 19.2078 68.2078 19.4212 68.4101C19.6346 68.6124 19.9014 68.7713 20.2118 68.8869C20.5223 69.0026 20.886 69.0604 21.2935 69.0604C21.7494 69.0604 22.1423 69.0026 22.4673 68.8869C22.7923 68.7713 23.0639 68.6124 23.2773 68.4101C23.4859 68.2078 23.646 67.9718 23.743 67.7068C23.84 67.4419 23.8885 67.1529 23.8885 66.8542V63.0586H23.3598V66.8591H23.3549Z" fill="white"/>
<path d="M28.5547 64.7063C28.448 64.5811 28.3219 64.4799 28.1812 64.4077C28.0406 64.3354 27.8853 64.2969 27.7204 64.2969C27.4149 64.2969 27.1044 64.3739 26.8085 64.5281C26.5418 64.663 26.2847 64.8604 26.0373 65.1206V64.2969H25.7317L25.043 64.5618V68.9355H26.0373V65.6119C26.1295 65.5252 26.2265 65.4433 26.3283 65.371C26.4351 65.294 26.5418 65.2265 26.6485 65.1735C26.7552 65.1206 26.8619 65.0772 26.9638 65.0435C27.1772 64.9809 27.3615 64.9809 27.5119 65.0531C27.5895 65.0868 27.6622 65.1446 27.7204 65.2121C27.7786 65.2795 27.8271 65.371 27.8611 65.477C27.895 65.583 27.9096 65.7082 27.9096 65.8527V68.9403H28.8991V65.6986C28.8991 65.5107 28.87 65.3277 28.8069 65.1591C28.7439 64.9809 28.6614 64.8315 28.5547 64.7063Z" fill="white"/>
<path d="M30.2185 64.5666V68.9307H31.2032V64.2969H30.8927L30.2185 64.5666Z" fill="white"/>
<path d="M31.1013 62.3317C31.0528 62.2836 30.9897 62.2402 30.9218 62.2113C30.786 62.1535 30.6259 62.1535 30.4901 62.2113C30.4222 62.2402 30.364 62.2788 30.3107 62.3317C30.2573 62.3847 30.2185 62.4425 30.1894 62.51C30.1603 62.5774 30.1458 62.6497 30.1458 62.7267C30.1458 62.8038 30.1603 62.876 30.1894 62.9435C30.2185 63.0109 30.2573 63.0687 30.3107 63.1217C30.3592 63.1699 30.4222 63.2132 30.4901 63.2421C30.558 63.271 30.6308 63.2855 30.7084 63.2855C30.786 63.2855 30.8588 63.271 30.9267 63.2421C30.9946 63.2132 31.0528 63.1747 31.1061 63.1217C31.1595 63.0735 31.1983 63.0109 31.2274 62.9435C31.2565 62.876 31.2711 62.8038 31.2711 62.7267C31.2711 62.6497 31.2565 62.5774 31.2274 62.51C31.1935 62.4425 31.1547 62.3847 31.1013 62.3317Z" fill="white"/>
<path d="M34.3462 67.6784L32.7941 64.3789H31.7512L33.9 68.9501L33.9145 68.979H34.2832L36.3155 64.4512L36.3495 64.3789H35.8353L34.3462 67.6784Z" fill="white"/>
<path d="M40.6131 67.1957C40.5743 67.3306 40.5064 67.4606 40.4093 67.581C40.3123 67.7063 40.1911 67.8219 40.0504 67.9182C39.9098 68.0146 39.7497 68.0964 39.5799 68.1591C39.4102 68.2169 39.2258 68.2506 39.0415 68.2506C38.8232 68.2506 38.6147 68.1976 38.4304 68.1013C38.246 68.0001 38.0811 67.8604 37.9453 67.6822C37.8095 67.504 37.7028 67.2824 37.6252 67.0367C37.5524 66.8007 37.5136 66.5454 37.5136 66.2709H40.8556V66.2227C40.8556 65.9722 40.8071 65.7266 40.7052 65.4954C40.6034 65.2641 40.4627 65.057 40.2832 64.8836C40.1038 64.7054 39.8855 64.5657 39.6333 64.4597C39.3859 64.3538 39.1046 64.3008 38.8087 64.3008C38.4692 64.3008 38.1587 64.3634 37.8823 64.4935C37.6058 64.6187 37.3681 64.7969 37.1692 65.0233C36.9752 65.2497 36.82 65.5194 36.7133 65.8277C36.6066 66.136 36.5532 66.4732 36.5532 66.8344C36.5532 67.1379 36.6114 67.4269 36.7327 67.6918C36.8491 67.9616 37.014 68.1928 37.2129 68.3903C37.4166 68.5878 37.6543 68.7467 37.9259 68.8623C38.1975 68.9779 38.4934 69.0357 38.8038 69.0357C39.0415 69.0357 39.2743 68.9924 39.5072 68.9008C39.7351 68.8141 39.9486 68.6889 40.1426 68.5396C40.3366 68.3903 40.5064 68.2072 40.6519 68.0049C40.7974 67.8026 40.9041 67.581 40.972 67.345L40.9817 67.3017L40.6325 67.1475L40.6131 67.1957ZM37.5233 65.8084C37.5379 65.6639 37.5718 65.5339 37.6252 65.4086C37.6834 65.269 37.761 65.1485 37.8532 65.0474C37.9453 64.9462 38.052 64.8692 38.1636 64.8114C38.4207 64.6861 38.7165 64.7102 38.9591 64.8114C39.0949 64.8692 39.2113 64.9511 39.3131 65.0522C39.415 65.1534 39.4926 65.2738 39.5508 65.4135C39.6042 65.5387 39.6284 65.6736 39.6381 65.8133L37.5233 65.8036V65.8084Z" fill="white"/>
<path d="M44.6972 64.3469C44.4207 64.2698 44.1249 64.2746 43.8484 64.3613C43.7029 64.4047 43.5622 64.4721 43.4313 64.554C43.3003 64.6359 43.179 64.737 43.0723 64.8478C42.9996 64.9249 42.9317 65.0068 42.8783 65.0935L42.7716 64.2891H42.5921L41.9082 64.5492V68.9277H42.8977V65.7871C42.9559 65.6667 43.0238 65.5559 43.1014 65.4644C43.179 65.3728 43.2663 65.2958 43.3585 65.2332C43.4507 65.1754 43.5477 65.1272 43.6495 65.0983C43.8193 65.0501 43.9939 65.0453 44.1685 65.0598C44.2364 65.0598 44.2995 65.079 44.3625 65.0983C44.4256 65.1176 44.4887 65.1513 44.5469 65.185C44.6051 65.2235 44.6633 65.2717 44.7215 65.3295L44.7748 65.3921L45.0998 64.5347L45.0659 64.5106C44.9543 64.4384 44.8282 64.3806 44.6972 64.3469Z" fill="white"/>
<path d="M48.3011 66.739C48.175 66.633 48.0343 66.5367 47.8742 66.4548C47.719 66.3729 47.5589 66.2959 47.394 66.2284L46.9187 66.0261C46.7635 65.9635 46.6276 65.8864 46.5064 65.8094C46.39 65.7323 46.293 65.6504 46.2251 65.5541C46.1572 65.4625 46.1232 65.3566 46.1232 65.2362C46.1232 65.1639 46.1426 65.0965 46.1814 65.029C46.2202 64.9616 46.2736 64.9038 46.3415 64.8556C46.4094 64.8075 46.4967 64.7641 46.5937 64.7352C46.6956 64.7063 46.8071 64.6919 46.9284 64.6919C47.1515 64.6919 47.3698 64.7593 47.5686 64.8845C47.7724 65.0146 47.9567 65.2169 48.1216 65.4818L48.1507 65.5348L48.5581 65.1735L48.529 65.135C48.3884 64.9568 48.2574 64.8123 48.1313 64.7063C48.0052 64.5955 47.8791 64.5088 47.7481 64.4462C47.622 64.3884 47.491 64.345 47.3552 64.3258C47.2243 64.3065 47.0787 64.2969 46.9332 64.2969C46.7053 64.2969 46.4967 64.3306 46.3027 64.3932C46.1135 64.4558 45.9437 64.5474 45.8031 64.663C45.6624 64.7786 45.5508 64.9134 45.4732 65.0724C45.3956 65.2313 45.352 65.4047 45.352 65.5878C45.352 65.7805 45.3859 65.9539 45.4587 66.1032C45.5314 66.2477 45.6236 66.3777 45.74 66.4885C45.8564 66.5993 45.9874 66.6957 46.1329 66.7775C46.2736 66.8546 46.4191 66.9317 46.5743 67.0039C46.7247 67.0762 46.8702 67.1436 47.0108 67.2111C47.1515 67.2737 47.2776 67.3459 47.3843 67.4278C47.491 67.5049 47.5783 67.5916 47.6414 67.6879C47.7045 67.7794 47.7336 67.8902 47.7336 68.0155C47.7336 68.0925 47.7142 68.1648 47.6802 68.237C47.6414 68.3093 47.588 68.3767 47.5201 68.4345C47.4522 68.4923 47.3649 68.5357 47.2728 68.5694C47.069 68.6417 46.812 68.632 46.6131 68.579C46.5112 68.5501 46.4045 68.502 46.3075 68.4393C46.2057 68.3767 46.1086 68.29 46.0116 68.1841C45.9146 68.0829 45.8128 67.9528 45.7061 67.8035L45.6721 67.7554L45.2307 68.1503L45.2598 68.1889C45.3956 68.3671 45.5363 68.5116 45.6818 68.6176C45.8225 68.7284 45.968 68.8151 46.1135 68.8729C46.259 68.9355 46.4045 68.974 46.5452 68.9981C46.6859 69.0174 46.8265 69.027 46.9575 69.027C47.2485 69.027 47.5104 68.9933 47.7287 68.921C47.947 68.8488 48.1313 68.7524 48.2768 68.6272C48.4223 68.502 48.5339 68.3526 48.6066 68.1841C48.6794 68.0155 48.7182 67.8324 48.7182 67.6349C48.7182 67.4374 48.6794 67.2689 48.6018 67.1244C48.529 66.9799 48.4272 66.8498 48.3011 66.739Z" fill="white"/>
<path d="M50.6147 62.3317C50.5662 62.2836 50.5032 62.2402 50.4353 62.2113C50.2994 62.1535 50.1394 62.1535 50.0036 62.2113C49.9357 62.2402 49.8775 62.2788 49.8241 62.3317C49.7707 62.3847 49.7319 62.4425 49.7028 62.51C49.6737 62.5774 49.6592 62.6497 49.6592 62.7267C49.6592 62.8038 49.6737 62.876 49.7028 62.9435C49.7319 63.0109 49.7707 63.0687 49.8241 63.1217C49.8726 63.1699 49.9357 63.2132 50.0036 63.2421C50.0715 63.271 50.1442 63.2855 50.2218 63.2855C50.2994 63.2855 50.3722 63.271 50.4401 63.2421C50.508 63.2132 50.5662 63.1747 50.6196 63.1217C50.6729 63.0735 50.7117 63.0109 50.7408 62.9435C50.7699 62.876 50.7845 62.8038 50.7845 62.7267C50.7845 62.6497 50.7699 62.5774 50.7408 62.51C50.7069 62.4425 50.6681 62.3847 50.6147 62.3317Z" fill="white"/>
<path d="M49.7319 64.5666V68.9307H50.7166V64.2969H50.4061L49.7319 64.5666Z" fill="white"/>
<path d="M54.204 68.1281C54.1458 68.1955 54.0778 68.2533 54.0002 68.3015C53.9275 68.3448 53.845 68.3689 53.7529 68.3689C53.6898 68.3689 53.6316 68.3593 53.5782 68.3352C53.5249 68.3111 53.4812 68.2822 53.4424 68.2437C53.4036 68.2051 53.3745 68.157 53.3503 68.1088C53.326 68.0558 53.3163 68.0028 53.3163 67.9402V64.8526H54.3155V64.3758H53.3163V62.8633H53.0107L52.3268 63.1282V64.3902L51.5847 64.5925L51.5459 64.6022V64.8574H52.3268V67.945C52.3268 68.104 52.3462 68.2485 52.3802 68.3786C52.419 68.5086 52.4723 68.6242 52.5499 68.7205C52.6276 68.8169 52.7246 68.8939 52.841 68.9469C52.9574 68.9999 53.0981 69.0288 53.2533 69.0288C53.5491 69.0288 53.8062 68.9662 54.0051 68.841C54.2088 68.7205 54.3737 68.552 54.4998 68.3352L54.5241 68.2918L54.2234 68.0944L54.204 68.1281Z" fill="white"/>
<path d="M57.4297 67.5291L55.7369 64.3789H54.6116L56.9301 68.6755L56.6391 69.321C56.6051 69.398 56.5615 69.4847 56.5081 69.5763C56.4596 69.663 56.3965 69.7497 56.3335 69.8267C56.2704 69.899 56.1977 69.9616 56.1201 70.0146C56.0473 70.0628 55.9697 70.0868 55.8824 70.0868C55.8145 70.0868 55.7466 70.0869 55.6884 70.0676C55.6302 70.0483 55.5768 70.0387 55.5283 70.0146C55.4798 69.9953 55.4313 69.9712 55.3925 69.952C55.3488 69.9279 55.31 69.9086 55.2712 69.8942L55.2276 69.8749L54.8347 70.7467L54.8201 70.7805L54.8492 70.8046C54.922 70.8575 55.0093 70.9057 55.116 70.9394C55.2179 70.9731 55.3294 70.9876 55.4362 70.9876C55.5817 70.9876 55.732 70.9635 55.8872 70.9105C56.0425 70.8575 56.1928 70.7757 56.3335 70.6697C56.4742 70.5637 56.6148 70.4288 56.7409 70.2651C56.867 70.1013 56.9786 69.9086 57.0756 69.687L59.3941 64.3789H58.8072L57.4297 67.5291Z" fill="white"/>
<path d="M65.5688 64.9393C65.3554 64.737 65.0983 64.5781 64.8073 64.4625C64.5163 64.3469 64.1913 64.2891 63.8469 64.2891C63.5025 64.2891 63.1678 64.3517 62.8768 64.4769C62.5809 64.6022 62.3239 64.7756 62.1104 64.9971C61.897 65.2139 61.7272 65.474 61.606 65.7678C61.4847 66.0617 61.4265 66.3796 61.4265 66.7119C61.4265 67.0443 61.4896 67.3333 61.606 67.6127C61.7272 67.892 61.897 68.1377 62.1104 68.3448C62.3239 68.552 62.5809 68.7205 62.8768 68.841C63.1727 68.9614 63.4977 69.024 63.8469 69.024C64.1961 69.024 64.5211 68.9566 64.8121 68.8265C65.1032 68.6965 65.3603 68.5134 65.5737 68.287C65.7871 68.0606 65.9569 67.7957 66.0781 67.4922C66.1994 67.1888 66.2576 66.8661 66.2576 66.5241C66.2576 66.2158 66.1945 65.9171 66.0781 65.6474C65.952 65.3825 65.7822 65.1416 65.5688 64.9393ZM64.4726 68.4701C64.3368 68.5519 64.1816 68.5953 64.0167 68.5953C63.7838 68.5953 63.5704 68.5375 63.391 68.4171C63.2066 68.2967 63.0466 68.1329 62.9205 67.9306C62.7895 67.7235 62.6925 67.4778 62.6246 67.2032C62.5567 66.9239 62.5227 66.6204 62.5227 66.3025C62.5227 66.0857 62.5518 65.8786 62.6149 65.6859C62.6779 65.4933 62.7604 65.3247 62.8623 65.1802C62.9641 65.0405 63.0854 64.9249 63.2163 64.843C63.3473 64.7611 63.4831 64.7226 63.6238 64.7226C63.9003 64.7226 64.1428 64.7804 64.332 64.896C64.526 65.0116 64.686 65.1705 64.8073 65.3728C64.9286 65.5752 65.0159 65.816 65.0741 66.0906C65.1274 66.3699 65.1565 66.6686 65.1565 66.9865C65.1565 67.2032 65.1274 67.4104 65.0692 67.6079C65.011 67.8005 64.9334 67.9739 64.8315 68.1233C64.7297 68.2678 64.6084 68.3834 64.4726 68.4701Z" fill="white"/>
<path d="M70.4726 62.6285C70.3707 62.5178 70.2543 62.4214 70.1233 62.3443C69.9972 62.2673 69.8517 62.2095 69.7013 62.1661C69.3279 62.065 68.9107 62.0891 68.5566 62.248C68.3481 62.3443 68.1637 62.4744 68.0134 62.6382C67.8582 62.8019 67.7369 62.9898 67.6447 63.2114C67.5574 63.4281 67.5089 63.6642 67.5089 63.9146V64.377H66.5776V64.8539H67.5089V68.929H68.5033V64.8539H69.6965V64.377H68.5033V63.38C68.5033 63.274 68.5178 63.1632 68.5469 63.0621C68.576 62.9609 68.6197 62.8694 68.673 62.7923C68.7264 62.7152 68.7895 62.6526 68.8622 62.6045C68.935 62.5611 69.0126 62.537 69.0999 62.537C69.2406 62.537 69.3618 62.5659 69.454 62.6237C69.551 62.6815 69.6286 62.7538 69.6916 62.8453C69.7547 62.9368 69.8081 63.0428 69.8517 63.1584C69.8954 63.274 69.9342 63.3944 69.9633 63.5052L69.9827 63.5726L70.7248 63.0428L70.7102 63.0043C70.652 62.8694 70.5696 62.7393 70.4726 62.6285Z" fill="white"/>
<path d="M76.526 65.6925H73.7079V63.0625H72.6311V68.9294H73.7079V66.1645H76.526V68.9294H77.6028V63.0625H76.526V65.6925Z" fill="white"/>
<path d="M82.7007 64.9393C82.4872 64.737 82.2302 64.5781 81.9391 64.4625C81.6481 64.3469 81.3231 64.2891 80.9787 64.2891C80.6343 64.2891 80.2997 64.3517 80.0086 64.4769C79.7128 64.6022 79.4557 64.7756 79.2423 64.9971C79.0288 65.2139 78.8591 65.474 78.7378 65.7678C78.6166 66.0617 78.5583 66.3796 78.5583 66.7119C78.5583 67.0443 78.6214 67.3333 78.7378 67.6127C78.8591 67.892 79.0288 68.1377 79.2423 68.3448C79.4557 68.552 79.7128 68.7205 80.0086 68.841C80.3045 68.9614 80.6295 69.024 80.9787 69.024C81.328 69.024 81.653 68.9566 81.944 68.8265C82.235 68.6965 82.4921 68.5134 82.7055 68.287C82.9189 68.0606 83.0887 67.7957 83.21 67.4922C83.3312 67.1888 83.3894 66.8661 83.3894 66.5241C83.3894 66.2158 83.3264 65.9171 83.21 65.6474C83.0838 65.3825 82.9141 65.1416 82.7007 64.9393ZM81.5996 68.4701C81.4638 68.5519 81.3086 68.5953 81.1436 68.5953C80.9108 68.5953 80.6974 68.5375 80.5179 68.4171C80.3336 68.2967 80.1736 68.1329 80.0474 67.9306C79.9165 67.7235 79.8195 67.4778 79.7516 67.2032C79.6837 66.9239 79.6497 66.6204 79.6497 66.3025C79.6497 66.0857 79.6788 65.8786 79.7419 65.6859C79.8049 65.4933 79.8874 65.3247 79.9892 65.1802C80.0911 65.0405 80.2124 64.9249 80.3433 64.843C80.4743 64.7611 80.6101 64.7226 80.7508 64.7226C81.0272 64.7226 81.2698 64.7804 81.4589 64.896C81.653 65.0116 81.813 65.1705 81.9343 65.3728C82.0555 65.5752 82.1428 65.816 82.2011 66.0906C82.2544 66.3699 82.2835 66.6686 82.2835 66.9865C82.2835 67.2032 82.2544 67.4104 82.1962 67.6079C82.138 67.8005 82.0604 67.9739 81.9585 68.1233C81.8615 68.2678 81.7403 68.3834 81.5996 68.4701Z" fill="white"/>
<path d="M87.8372 64.7063C87.7305 64.5811 87.6044 64.4799 87.4637 64.4077C87.323 64.3354 87.1678 64.2969 87.0029 64.2969C86.6973 64.2969 86.3869 64.3739 86.091 64.5281C85.8242 64.663 85.5672 64.8604 85.3198 65.1206V64.2969H85.0142L84.3254 64.5618V68.9355H85.3198V65.6119C85.4119 65.5252 85.509 65.4433 85.6108 65.371C85.7175 65.294 85.8242 65.2265 85.9309 65.1735C86.0377 65.1206 86.1444 65.0772 86.2462 65.0435C86.4596 64.9809 86.644 64.9809 86.7943 65.0531C86.8719 65.0868 86.9447 65.1446 87.0029 65.2121C87.0611 65.2795 87.1096 65.371 87.1436 65.477C87.1775 65.583 87.1921 65.7082 87.1921 65.8527V68.9403H88.1816V65.6986C88.1816 65.5107 88.1525 65.3277 88.0894 65.1591C88.0312 64.9809 87.9439 64.8315 87.8372 64.7063Z" fill="white"/>
<path d="M92.2414 64.4944C92.1493 64.4558 92.0474 64.4221 91.9359 64.3932C91.8194 64.3643 91.6933 64.3402 91.5672 64.321C91.4363 64.3017 91.3004 64.2969 91.1646 64.2969C90.8833 64.2969 90.6165 64.3402 90.374 64.4269C90.1315 64.5136 89.9181 64.6292 89.7337 64.7786C89.5494 64.9279 89.4039 65.1061 89.3021 65.3036C89.2002 65.5059 89.1468 65.7178 89.1468 65.9442C89.1468 66.2477 89.2341 66.5222 89.4136 66.7583C89.5688 66.9654 89.7774 67.1292 90.0345 67.2592C89.9472 67.2978 89.8599 67.3459 89.7823 67.3989C89.6707 67.4712 89.5737 67.5579 89.4864 67.6494C89.3991 67.7409 89.3312 67.8372 89.2827 67.9384C89.2293 68.0444 89.205 68.1455 89.205 68.2419C89.205 68.3093 89.2196 68.3767 89.2535 68.4393C89.2875 68.4971 89.3312 68.5549 89.3894 68.6031C89.4427 68.6513 89.5106 68.6946 89.5882 68.7332C89.6367 68.7573 89.6852 68.7813 89.7386 68.8006C89.6464 68.8729 89.5591 68.9451 89.4621 69.0174C89.3457 69.1137 89.2341 69.2149 89.1371 69.3208C89.0401 69.4268 88.9577 69.5376 88.8946 69.6532C88.8316 69.7688 88.7976 69.8988 88.7976 70.0289C88.7976 70.1782 88.8461 70.3179 88.9431 70.4383C89.0401 70.5539 89.1856 70.6599 89.3748 70.7418C89.5591 70.8237 89.7968 70.8863 90.0781 70.9296C90.3546 70.973 90.6844 70.9971 91.0579 70.9971C91.4751 70.9971 91.8534 70.9585 92.1832 70.8767C92.5131 70.7948 92.7992 70.6792 93.0321 70.525C93.2649 70.3757 93.4444 70.1879 93.5705 69.9711C93.6966 69.7543 93.7596 69.5087 93.7596 69.2438C93.7596 69.0944 93.7354 68.9547 93.6917 68.8343C93.6432 68.7091 93.5656 68.6031 93.4541 68.5116C93.3473 68.4201 93.197 68.3478 93.0127 68.2948C92.8332 68.2419 92.6052 68.213 92.3384 68.1985L90.6844 68.1262C90.5098 68.1166 90.3789 68.0877 90.2867 68.0396C90.2042 67.9962 90.1654 67.9432 90.1654 67.871C90.1654 67.7891 90.1897 67.7024 90.243 67.6205C90.2916 67.5434 90.3546 67.4712 90.4274 67.4085C90.5147 67.4326 90.6117 67.4567 90.7184 67.4712C90.8397 67.4904 90.9609 67.4952 91.0725 67.4952C91.3829 67.4952 91.6691 67.4567 91.9262 67.3845C92.1832 67.3074 92.4112 67.2014 92.5955 67.0617C92.7847 66.922 92.9302 66.7535 93.0369 66.556C93.1436 66.3585 93.197 66.1417 93.197 65.9009C93.197 65.7467 93.1679 65.5926 93.1145 65.4336C93.0709 65.3084 93.0175 65.1976 92.9545 65.0965H93.7596V64.6244H92.45C92.3918 64.5714 92.3239 64.5329 92.2414 64.4944ZM89.7774 69.4172C89.7919 69.3545 89.8211 69.2871 89.8502 69.2245C89.8841 69.1619 89.9229 69.0993 89.9714 69.0415C90.0151 68.9885 90.0636 68.9403 90.1218 68.8969C90.1848 68.9066 90.2818 68.9162 90.408 68.9307C90.5535 68.9451 90.7184 68.9596 90.9076 68.974C91.0967 68.9885 91.3005 68.9981 91.5236 69.0077C91.737 69.0174 91.9601 69.0222 92.1784 69.0222C92.3481 69.0222 92.5034 69.0318 92.6343 69.0559C92.7653 69.08 92.8817 69.1137 92.969 69.1571C93.0563 69.2004 93.1242 69.2534 93.1727 69.3208C93.2164 69.3834 93.2406 69.4605 93.2406 69.5472C93.2406 69.6291 93.2018 69.7158 93.1242 69.7977C93.0418 69.8844 92.9205 69.9663 92.7653 70.0434C92.6052 70.1204 92.4064 70.1782 92.1784 70.2264C91.9504 70.2697 91.6836 70.2938 91.3878 70.2938C91.1113 70.2938 90.8688 70.2746 90.6602 70.236C90.4516 70.1975 90.277 70.1397 90.146 70.0771C90.0151 70.0096 89.9132 69.9374 89.8502 69.8507C89.7871 69.7688 89.758 69.6869 89.758 69.6002C89.758 69.5424 89.758 69.4798 89.7774 69.4172ZM90.6893 64.7159C90.7912 64.6581 90.9124 64.6292 91.0531 64.6292C91.1937 64.6292 91.3344 64.6678 91.4605 64.74C91.5915 64.8123 91.7079 64.9182 91.8049 65.0483C91.9019 65.1784 91.9844 65.3373 92.0426 65.5204C92.1008 65.7034 92.1299 65.9009 92.1299 66.1128C92.1299 66.2573 92.1056 66.397 92.0523 66.5223C92.0038 66.6475 91.9359 66.7583 91.8486 66.8546C91.7661 66.9461 91.6642 67.0232 91.5575 67.0762C91.315 67.1918 91.0385 67.1773 90.8251 67.0521C90.7087 66.9847 90.602 66.8883 90.5195 66.7631C90.4322 66.6379 90.3643 66.4934 90.3158 66.3248C90.2673 66.1562 90.243 65.9731 90.243 65.7756C90.243 65.6119 90.2576 65.4577 90.2915 65.3132C90.3255 65.1735 90.374 65.0483 90.4419 64.9471C90.505 64.8508 90.5874 64.7737 90.6893 64.7159Z" fill="white"/>
<path d="M100.73 63.0625H99.9392L96.9464 65.5624V63.0625H95.8696V68.9294H96.9464V66.0682L100.094 68.9198L100.109 68.9294H101.501L97.7662 65.5432L100.73 63.0625Z" fill="white"/>
<path d="M105.74 64.9393C105.527 64.737 105.27 64.5781 104.979 64.4625C104.688 64.3469 104.363 64.2891 104.019 64.2891C103.674 64.2891 103.344 64.3517 103.048 64.4769C102.753 64.6022 102.495 64.7756 102.282 64.9971C102.069 65.2139 101.899 65.474 101.778 65.7678C101.656 66.0617 101.598 66.3796 101.598 66.7119C101.598 67.0443 101.656 67.3333 101.778 67.6127C101.899 67.892 102.069 68.1377 102.282 68.3448C102.495 68.552 102.753 68.7205 103.048 68.841C103.344 68.9614 103.669 69.024 104.019 69.024C104.368 69.024 104.688 68.9566 104.984 68.8265C105.275 68.6965 105.532 68.5134 105.745 68.287C105.959 68.0606 106.128 67.7957 106.25 67.4922C106.371 67.1936 106.429 66.8661 106.429 66.5241C106.429 66.211 106.366 65.9171 106.25 65.6474C106.124 65.3825 105.954 65.1416 105.74 64.9393ZM104.639 68.4701C104.504 68.5519 104.348 68.5953 104.183 68.5953C103.951 68.5953 103.737 68.5375 103.558 68.4171C103.373 68.2967 103.213 68.1329 103.087 67.9306C102.956 67.7235 102.859 67.4826 102.791 67.2032C102.723 66.9239 102.69 66.6204 102.69 66.3025C102.69 66.0857 102.723 65.8786 102.782 65.6859C102.845 65.4933 102.927 65.3247 103.034 65.1802C103.136 65.0405 103.257 64.9249 103.388 64.843C103.519 64.7611 103.655 64.7226 103.795 64.7226C104.072 64.7226 104.314 64.7804 104.504 64.896C104.698 65.0116 104.858 65.1705 104.979 65.3728C105.1 65.5752 105.192 65.816 105.246 66.0906C105.299 66.3699 105.328 66.6686 105.328 66.9865C105.328 67.2032 105.299 67.4152 105.241 67.6079C105.183 67.8005 105.105 67.9739 105.003 68.1233C104.901 68.2678 104.78 68.3834 104.639 68.4701Z" fill="white"/>
<path d="M110.877 64.7063C110.77 64.5811 110.644 64.4799 110.503 64.4077C110.363 64.3354 110.208 64.2969 110.038 64.2969C109.732 64.2969 109.427 64.3739 109.126 64.5281C108.859 64.663 108.602 64.8604 108.355 65.1206V64.2969H108.049L107.36 64.5618V68.9355H108.355V65.6119C108.442 65.5252 108.544 65.4433 108.646 65.371C108.752 65.294 108.859 65.2265 108.966 65.1735C109.073 65.1206 109.179 65.0772 109.281 65.0435C109.495 64.9809 109.679 64.9809 109.829 65.0531C109.907 65.0868 109.98 65.1398 110.038 65.2121C110.096 65.2843 110.145 65.371 110.178 65.477C110.212 65.583 110.227 65.7082 110.227 65.8527V68.9403H111.216V65.6986C111.216 65.5107 111.187 65.3277 111.124 65.1591C111.071 64.9809 110.984 64.8315 110.877 64.7063Z" fill="white"/>
<path d="M116.795 64.6139H115.485C115.432 64.5705 115.364 64.532 115.281 64.4983C115.189 64.4597 115.087 64.426 114.976 64.3971C114.859 64.3682 114.733 64.3441 114.607 64.3249C114.476 64.3056 114.34 64.3008 114.204 64.3008C113.923 64.3008 113.656 64.3441 113.414 64.4308C113.171 64.5175 112.953 64.6331 112.774 64.7825C112.589 64.9318 112.444 65.11 112.342 65.3075C112.24 65.5098 112.187 65.7217 112.187 65.9481C112.187 66.2516 112.274 66.5262 112.453 66.7622C112.609 66.9693 112.817 67.1331 113.074 67.2631C112.987 67.3017 112.9 67.3498 112.822 67.4028C112.71 67.4751 112.613 67.5618 112.526 67.6533C112.439 67.7448 112.371 67.8411 112.322 67.9423C112.269 68.0483 112.245 68.1494 112.245 68.2458C112.245 68.3132 112.259 68.3806 112.293 68.4432C112.327 68.501 112.371 68.5588 112.424 68.607C112.478 68.6552 112.546 68.6985 112.623 68.7371C112.672 68.7612 112.72 68.7852 112.774 68.8045C112.681 68.8768 112.589 68.949 112.497 69.0213C112.381 69.1176 112.269 69.2188 112.172 69.3247C112.075 69.4307 111.993 69.5415 111.93 69.6571C111.866 69.7727 111.833 69.8979 111.833 70.0328C111.833 70.1821 111.881 70.3218 111.978 70.4422C112.075 70.5578 112.221 70.6638 112.41 70.7457C112.594 70.8276 112.832 70.8902 113.113 70.9335C113.39 70.9769 113.719 71.001 114.093 71.001C114.51 71.001 114.888 70.9624 115.218 70.8806C115.548 70.7987 115.834 70.6831 116.067 70.5289C116.3 70.3796 116.479 70.1918 116.605 69.975C116.731 69.7582 116.795 69.5126 116.795 69.2477C116.795 69.0983 116.77 68.9587 116.727 68.8382C116.678 68.713 116.601 68.607 116.489 68.5155C116.382 68.424 116.232 68.3517 116.048 68.2987C115.868 68.2458 115.64 68.2169 115.373 68.2024L113.719 68.1302C113.545 68.1205 113.414 68.0916 113.322 68.0434C113.239 68.0001 113.2 67.9471 113.2 67.8749C113.2 67.793 113.229 67.7063 113.278 67.6244C113.331 67.5425 113.39 67.4751 113.462 67.4124C113.545 67.4365 113.647 67.4606 113.753 67.4751C113.875 67.4943 113.996 67.4992 114.107 67.4992C114.418 67.4992 114.704 67.4606 114.961 67.3884C115.218 67.3113 115.446 67.2053 115.63 67.0656C115.82 66.9259 115.965 66.7574 116.072 66.5599C116.179 66.3624 116.232 66.1456 116.232 65.9048C116.232 65.7506 116.203 65.5965 116.149 65.4376C116.106 65.3123 116.052 65.2015 115.989 65.1004H116.795V64.6139ZM112.817 69.4162C112.832 69.3536 112.861 69.2862 112.89 69.2236C112.924 69.161 112.963 69.0983 113.011 69.0405C113.055 68.9876 113.103 68.9394 113.162 68.896C113.225 68.9057 113.322 68.9153 113.448 68.9298C113.593 68.9442 113.758 68.9586 113.947 68.9731C114.136 68.9876 114.34 68.9972 114.563 69.0068C114.777 69.0164 115 69.0213 115.218 69.0213C115.388 69.0213 115.543 69.0309 115.674 69.055C115.805 69.0791 115.921 69.1128 116.009 69.1561C116.096 69.1995 116.164 69.2525 116.212 69.3199C116.256 69.3825 116.28 69.4596 116.28 69.5463C116.28 69.6282 116.242 69.7149 116.164 69.7968C116.082 69.8835 115.96 69.9654 115.805 70.0424C115.645 70.1195 115.446 70.1773 115.218 70.2255C114.99 70.2688 114.723 70.2929 114.428 70.2929C114.151 70.2929 113.909 70.2736 113.7 70.2351C113.491 70.1966 113.317 70.1388 113.186 70.0762C113.055 70.0087 112.953 69.9365 112.89 69.8498C112.827 69.7679 112.798 69.686 112.798 69.5993C112.793 69.5415 112.798 69.4789 112.817 69.4162ZM113.729 64.715C113.831 64.6572 113.952 64.6283 114.093 64.6283C114.234 64.6283 114.374 64.6669 114.5 64.7391C114.631 64.8114 114.748 64.9173 114.845 65.0474C114.942 65.1774 115.024 65.3364 115.082 65.5194C115.141 65.7025 115.17 65.9 115.17 66.1119C115.17 66.2564 115.145 66.3961 115.092 66.5213C115.044 66.6466 114.976 66.7574 114.888 66.8537C114.806 66.9452 114.704 67.0223 114.597 67.0753C114.355 67.1909 114.078 67.1764 113.865 67.0512C113.748 66.9837 113.642 66.8874 113.559 66.7622C113.472 66.6369 113.404 66.4924 113.356 66.3238C113.307 66.1553 113.283 65.9722 113.283 65.7747C113.283 65.611 113.297 65.4568 113.331 65.3123C113.365 65.1726 113.414 65.0474 113.482 64.9462C113.545 64.8499 113.627 64.7728 113.729 64.715Z" fill="white"/>
</svg>
